<?xml version="1.0" standalone="no"?>
<!DOCTYPE svg PUBLIC "-//W3C//DTD SVG 20010904//EN"
 "http://www.w3.org/TR/2001/REC-SVG-20010904/DTD/svg10.dtd">
<svg version="1.0" xmlns="http://www.w3.org/2000/svg"
 width="200.000000pt" height="200.000000pt" viewBox="0 0 200.000000 200.000000"
 preserveAspectRatio="xMidYMid meet">
<metadata>
Created by potrace 1.11, written by Peter Selinger 2001-2013
</metadata>
<g transform="translate(0.000000,200.000000) scale(0.100000,-0.100000)"
fill="#000000" stroke="none">
<path d="M880 1869 c0 -21 53 -82 78 -90 10 -3 12 -74 10 -326 l-3 -322 -109
300 c-90 247 -107 304 -98 318 41 55 50 121 17 121 -9 0 -13 -11 -13 -30 2
-70 -80 -104 -132 -55 -16 15 -30 21 -38 16 -23 -14 28 -62 73 -70 l39 -6 108
-299 c60 -164 108 -300 106 -301 -2 -2 -93 105 -203 236 -150 181 -199 245
-196 262 13 82 -3 147 -29 121 -8 -8 -7 -19 1 -36 14 -33 -4 -76 -43 -97 -24
-14 -30 -14 -62 1 -40 20 -59 7 -32 -20 11 -12 34 -17 71 -17 l54 0 201 -239
c110 -131 200 -241 200 -243 0 -5 -29 12 -333 187 l-217 125 0 35 c0 36 -32
100 -49 100 -21 0 -21 -21 -2 -46 27 -34 27 -64 0 -98 -17 -21 -29 -26 -65
-26 -32 0 -44 -4 -44 -15 0 -24 77 -24 115 1 21 13 37 5 291 -141 148 -86 272
-159 277 -164 4 -4 -135 18 -310 49 l-317 56 -8 31 c-8 32 -50 73 -74 73 -23
0 -16 -20 16 -47 22 -18 30 -33 30 -57 0 -37 -34 -76 -69 -79 -21 -1 -32 -37
-11 -37 24 0 79 30 93 51 l17 23 310 -54 c170 -30 310 -57 310 -60 0 -3 -140
-30 -310 -60 l-310 -54 -17 23 c-14 21 -69 51 -93 51 -21 0 -10 -36 11 -37 35
-3 69 -42 69 -79 0 -24 -8 -39 -30 -57 -32 -27 -39 -47 -16 -47 24 0 66 41 74
73 l8 31 317 56 c175 31 314 53 310 49 -5 -5 -129 -78 -276 -163 -250 -144
-270 -154 -290 -141 -38 24 -117 24 -117 0 0 -11 12 -15 44 -15 36 0 48 -5 65
-26 27 -34 27 -64 0 -98 -22 -28 -18 -49 7 -39 21 8 44 57 44 95 0 32 4 35
217 158 304 175 333 192 333 187 0 -2 -90 -112 -200 -243 l-201 -239 -54 0
c-37 0 -60 -5 -71 -17 -27 -27 -8 -40 32 -20 32 15 38 15 62 1 39 -21 57 -64
43 -97 -8 -17 -9 -28 -1 -36 26 -26 42 39 29 121 -3 17 46 81 196 262 110 131
201 238 203 236 2 -1 -46 -137 -106 -301 l-108 -299 -39 -6 c-45 -8 -96 -56
-73 -70 8 -5 22 1 38 16 52 49 134 15 132 -55 0 -19 4 -30 13 -30 33 0 24 66
-17 121 -9 14 8 71 98 318 l109 300 3 -322 c2 -252 0 -323 -10 -326 -25 -8
-78 -69 -78 -90 0 -31 26 -26 40 8 25 62 115 62 140 0 14 -34 40 -39 40 -8 0
21 -53 82 -78 90 -10 3 -12 74 -10 326 l3 322 109 -300 c90 -247 107 -304 98
-318 -41 -55 -50 -121 -17 -121 9 0 13 11 13 30 -2 70 80 104 132 55 16 -15
30 -21 38 -16 23 14 -28 62 -73 70 l-39 6 -108 299 c-60 164 -108 300 -106
301 2 2 93 -105 203 -236 150 -181 199 -245 196 -262 -13 -82 3 -147 29 -121
8 8 7 19 -1 36 -14 33 4 76 43 97 24 14 30 14 62 -1 40 -20 59 -7 32 20 -11
12 -34 17 -71 17 l-54 0 -201 239 c-110 131 -200 241 -200 243 0 5 29 -12 333
-187 213 -123 217 -126 217 -158 0 -38 23 -87 44 -95 25 -10 29 11 7 39 -27
34 -27 64 0 98 17 21 29 26 65 26 32 0 44 4 44 15 0 24 -79 24 -117 0 -20 -13
-40 -3 -290 141 -147 85 -271 158 -276 163 -4 4 135 -18 310 -49 l317 -56 8
-31 c8 -32 50 -73 74 -73 23 0 16 20 -16 47 -22 18 -30 33 -30 57 0 37 34 76
69 79 21 1 32 37 11 37 -24 0 -79 -30 -93 -51 l-17 -23 -310 54 c-170 30 -310
57 -310 60 0 3 140 30 310 60 l310 54 17 -23 c14 -21 69 -51 93 -51 21 0 10
36 -11 37 -35 3 -69 42 -69 79 0 24 8 39 30 57 32 27 39 47 16 47 -24 0 -66
-41 -74 -73 l-8 -31 -317 -56 c-175 -31 -314 -53 -310 -49 5 5 129 78 276 163
250 144 270 154 290 141 38 -24 117 -24 117 0 0 11 -12 15 -44 15 -36 0 -48 5
-65 26 -27 34 -27 64 0 98 22 28 18 49 -7 39 -21 -8 -44 -57 -44 -95 0 -32 -4
-35 -217 -158 -304 -175 -333 -192 -333 -187 0 2 90 112 200 243 l201 239 54
0 c37 0 60 5 71 17 27 27 8 40 -32 20 -32 -15 -38 -15 -62 -1 -39 21 -57 64
-43 97 8 17 9 28 1 36 -26 26 -42 -39 -29 -121 3 -17 -46 -81 -196 -262 -110
-131 -201 -238 -203 -236 -2 1 46 137 106 301 l108 299 39 6 c45 8 96 56 73
70 -8 5 -22 -1 -38 -16 -52 -49 -134 -15 -132 55 0 19 -4 30 -13 30 -33 0 -24
-66 17 -121 9 -14 -8 -71 -98 -318 l-109 -300 -3 322 c-2 252 0 323 10 326 25
8 78 69 78 90 0 31 -26 26 -40 -8 -16 -39 -60 -58 -99 -41 -16 6 -35 25 -41
41 -14 34 -40 39 -40 8z"/>
</g>
</svg>
