<?xml version="1.0" encoding="UTF-8" standalone="no"?>
<svg
   viewBox="0 0 786 186"
   version="1.1"
   id="svg528"
   sodipodi:docname="SEAD-logo-large-trans2.svg"
   inkscape:version="1.2.2 (732a01da63, 2022-12-09)"
   xmlns:inkscape="http://www.inkscape.org/namespaces/inkscape"
   xmlns:sodipodi="http://sodipodi.sourceforge.net/DTD/sodipodi-0.dtd"
   xmlns="http://www.w3.org/2000/svg"
   xmlns:svg="http://www.w3.org/2000/svg"
   xmlns:rdf="http://www.w3.org/1999/02/22-rdf-syntax-ns#"
   xmlns:cc="http://creativecommons.org/ns#"
   xmlns:dc="http://purl.org/dc/elements/1.1/">
  <sodipodi:namedview
     id="namedview530"
     pagecolor="#ffffff"
     bordercolor="#000000"
     borderopacity="0"
     inkscape:showpageshadow="false"
     inkscape:pageopacity="0.0"
     inkscape:pagecheckerboard="0"
     inkscape:deskcolor="#d1d1d1"
     showgrid="false"
     inkscape:zoom="1.7943785"
     inkscape:cx="468.12866"
     inkscape:cy="116.75352"
     inkscape:window-width="1920"
     inkscape:window-height="1111"
     inkscape:window-x="-9"
     inkscape:window-y="-9"
     inkscape:window-maximized="1"
     inkscape:current-layer="svg528"
     showborder="false"
     borderlayer="false" />
  <defs
     id="defs269">
    <linearGradient
       id="linearGradient3383"
       inkscape:swatch="solid">
      <stop
         style="stop-color:#000000;stop-opacity:0;"
         offset="0"
         id="stop3381" />
    </linearGradient>
    <style
       id="style267">.cls-1,.cls-6{fill:#fff;}.cls-1,.cls-4{stroke:#fff;stroke-width:2px;}.cls-1{stroke-linecap:round;stroke-linejoin:round;}.cls-2{fill:none;stroke:#b3b3b3;stroke-width:4px;}.cls-2,.cls-4{stroke-miterlimit:10;}.cls-3{fill:#b3b3b3;}.cls-4,.cls-5{fill:#875d5d;}</style>
  </defs>
  <title
     id="title271">SEAD-logo</title>
  <g
     id="BG2">
    <line
       class="cls-2"
       x1="351"
       y1="94"
       x2="57"
       y2="94"
       id="line276" />
    <ellipse
       class="cls-2"
       cx="33"
       cy="94"
       rx="26"
       ry="8"
       id="ellipse278" />
  </g>
  <g
     id="Layer_9"
     data-name="Layer 9">
    <path
       class="cls-3"
       d="M351,13a8,8,0,0,1-8-8h-3a11,11,0,0,0,22,0h-3A8,8,0,0,1,351,13Z"
       id="path281" />
    <rect
       class="cls-3"
       x="349"
       y="14"
       width="4"
       height="80"
       id="rect283" />
    <path
       class="cls-3"
       d="M323.3,17.88A8,8,0,0,1,313,13.1l-2.82,1A11,11,0,0,0,330.9,6.61l-2.82,1A8,8,0,0,1,323.3,17.88Z"
       id="path285" />
    <rect
       class="cls-3"
       x="335.32"
       y="16.41"
       width="4"
       height="80"
       transform="translate(1.05 118.77) rotate(-20)"
       id="rect287" />
    <path
       class="cls-3"
       d="M298.93,32a8,8,0,0,1-11.27-1l-2.3,1.93a11,11,0,0,0,16.85-14.14l-2.3,1.93A8,8,0,0,1,298.93,32Z"
       id="path289" />
    <rect
       class="cls-3"
       x="323.29"
       y="23.36"
       width="4"
       height="80"
       transform="translate(35.38 223.91) rotate(-40)"
       id="rect291" />
    <path
       class="cls-3"
       d="M280.85,53.5a8,8,0,0,1-10.93,2.93l-1.5,2.6a11,11,0,0,0,11-19.05l-1.5,2.6A8,8,0,0,1,280.85,53.5Z"
       id="path293" />
    <rect
       class="cls-3"
       x="314.36"
       y="34"
       width="4"
       height="80"
       transform="translate(94.09 310.97) rotate(-60)"
       id="rect295" />
    <path
       class="cls-3"
       d="M271.23,79.93A8,8,0,0,1,262,86.42l-.52,3a11,11,0,1,0,3.82-21.67l-.52,3A8,8,0,0,1,271.23,79.93Z"
       id="path297" />
    <rect
       class="cls-3"
       x="309.61"
       y="47.05"
       width="4"
       height="80"
       transform="translate(171.77 378.81) rotate(-80)"
       id="rect299" />
    <path
       class="cls-3"
       d="M271.23,108.07a8,8,0,0,1-6.49,9.27l.52,3a11,11,0,1,0-3.82-21.67l.52,3A8,8,0,0,1,271.23,108.07Z"
       id="path301" />
    <rect
       class="cls-3"
       x="309.61"
       y="60.95"
       width="4"
       height="80"
       transform="translate(266.31 425.35) rotate(-100)"
       id="rect303" />
    <path
       class="cls-3"
       d="M280.85,134.5a8,8,0,0,1-2.93,10.93l1.5,2.6a11,11,0,0,0-11-19.05l1.5,2.6A8,8,0,0,1,280.85,134.5Z"
       id="path305" />
    <rect
       class="cls-3"
       x="314.36"
       y="74"
       width="4"
       height="80"
       transform="translate(375.81 444.97) rotate(-120)"
       id="rect307" />
    <path
       class="cls-3"
       d="M298.93,156a8,8,0,0,1,1,11.27l2.3,1.93a11,11,0,0,0-16.85-14.14l2.3,1.93A8,8,0,0,1,298.93,156Z"
       id="path309" />
    <rect
       class="cls-3"
       x="323.29"
       y="84.64"
       width="4"
       height="80"
       transform="translate(494.36 429.21) rotate(-140)"
       id="rect311" />
    <path
       class="cls-3"
       d="M323.3,170.12a8,8,0,0,1,4.78,10.25l2.82,1a11,11,0,0,0-20.67-7.52l2.82,1A8,8,0,0,1,323.3,170.12Z"
       id="path313" />
    <rect
       class="cls-3"
       x="335.32"
       y="91.59"
       width="4"
       height="80"
       transform="translate(609.29 370.61) rotate(-160)"
       id="rect315" />
    <path
       class="cls-3"
       d="M351,175a8,8,0,0,1,8,8h3a11,11,0,0,0-22,0h3A8,8,0,0,1,351,175Z"
       id="path317" />
    <rect
       class="cls-3"
       x="349"
       y="94"
       width="4"
       height="80"
       transform="translate(702 268) rotate(-180)"
       id="rect319" />
    <path
       class="cls-3"
       d="M378.7,170.12A8,8,0,0,1,389,174.9l2.82-1a11,11,0,0,0-20.67,7.52l2.82-1A8,8,0,0,1,378.7,170.12Z"
       id="path321" />
    <rect
       class="cls-3"
       x="362.68"
       y="91.59"
       width="4"
       height="80"
       transform="translate(752.37 130.51) rotate(160)"
       id="rect323" />
    <path
       class="cls-3"
       d="M403.07,156a8,8,0,0,1,11.27,1l2.3-1.93a11,11,0,0,0-16.85,14.14l2.3-1.93A8,8,0,0,1,403.07,156Z"
       id="path325" />
    <rect
       class="cls-3"
       x="374.71"
       y="84.64"
       width="4"
       height="80"
       transform="translate(745.41 -22.02) rotate(140)"
       id="rect327" />
    <path
       class="cls-3"
       d="M421.15,134.5a8,8,0,0,1,10.93-2.93l1.5-2.6a11,11,0,0,0-11,19.05l1.5-2.6A8,8,0,0,1,421.15,134.5Z"
       id="path329" />
    <rect
       class="cls-3"
       x="383.64"
       y="74"
       width="4"
       height="80"
       transform="translate(677.19 -162.97) rotate(120)"
       id="rect331" />
    <path
       class="cls-3"
       d="M430.77,108.07a8,8,0,0,1,9.27-6.49l.52-3a11,11,0,1,0-3.82,21.67l.52-3A8,8,0,0,1,430.77,108.07Z"
       id="path333" />
    <rect
       class="cls-3"
       x="388.39"
       y="60.95"
       width="4"
       height="80"
       transform="translate(557.6 -265.99) rotate(100)"
       id="rect335" />
    <path
       class="cls-3"
       d="M430.77,79.93a8,8,0,0,1,6.49-9.27l-.52-3a11,11,0,1,0,3.82,21.67l-.52-3A8,8,0,0,1,430.77,79.93Z"
       id="path337" />
    <rect
       class="cls-3"
       x="388.39"
       y="47.05"
       width="4"
       height="80"
       transform="translate(408.33 -312.52) rotate(80)"
       id="rect339" />
    <path
       class="cls-3"
       d="M421.15,53.5a8,8,0,0,1,2.93-10.93l-1.5-2.6a11,11,0,0,0,11,19.05l-1.5-2.6A8,8,0,0,1,421.15,53.5Z"
       id="path341" />
    <rect
       class="cls-3"
       x="383.64"
       y="34"
       width="4"
       height="80"
       transform="translate(256.91 -296.97) rotate(60)"
       id="rect343" />
    <path
       class="cls-3"
       d="M403.07,32a8,8,0,0,1-1-11.27l-2.3-1.93a11,11,0,0,0,16.85,14.14L414.34,31A8,8,0,0,1,403.07,32Z"
       id="path345" />
    <rect
       class="cls-3"
       x="374.71"
       y="23.36"
       width="4"
       height="80"
       transform="translate(128.86 -227.32) rotate(40)"
       id="rect347" />
    <path
       class="cls-3"
       d="M378.7,17.88a8,8,0,0,1-4.78-10.25l-2.82-1a11,11,0,0,0,20.67,7.52l-2.82-1A8,8,0,0,1,378.7,17.88Z"
       id="path349" />
    <rect
       class="cls-3"
       x="362.68"
       y="16.41"
       width="4"
       height="80"
       transform="translate(41.29 -121.33) rotate(20)"
       id="rect351" />
  </g>
  <g
     id="SEAD-text">
    <path
       class="cls-4"
       d="M99.75,55.29,84.46,49.9Q76,46.82,72.36,41.54T68.73,27.68q0-12.54,6.1-16.77t21.5-4.23q14.52,0,25,3l-1.1,11.44q-9.57-.33-23.76-.33-6.6,0-8.8,1.15t-2.2,5.77q0,3.74,1.65,5.39t6.27,3.19l14.41,5q8.8,3.08,12.43,8.42t3.63,13.92q0,12.76-6.16,17.33t-22,4.56a122.88,122.88,0,0,1-26.07-2.86l1-12.1Q94,71,95.68,71q6.71,0,9-1.43t2.25-5.94q0-3.85-1.54-5.45A14,14,0,0,0,99.75,55.29Z"
       id="path354" />
    <path
       class="cls-4"
       d="M189,70.91l.77,12.32q-10.34,1.1-35.2,1.1-7.59,0-12.1-4.12T137.81,69v-46q.11-7,4.62-11.17t12.1-4.12q24.86,0,35.2,1.1L189,21.3H159.81a5.15,5.15,0,0,0-4,1.32,6.24,6.24,0,0,0-1.21,4.29V38.46h30.25v12.1H154.64V65.19q0,3.08,1.21,4.4a5.15,5.15,0,0,0,4,1.32Z"
       id="path356" />
    <path
       class="cls-4"
       d="M245.72,64.09H219.65L214.15,84H197l21.89-71.5A5.25,5.25,0,0,1,221,9.31a6.17,6.17,0,0,1,3.74-1.21h15.84q4.73,0,5.83,4.4L268.27,84H251.22Zm-3.63-13L235.71,27.9q-1.32-5.5-1.54-7.15h-3q-.22,1.1-.77,3.52t-.88,3.63l-6.38,23.21Z"
       id="path358" />
    <path
       class="cls-4"
       d="M278.83,84V8.1q15.62-1,29.48-1,18.15,0,25.24,8.36T340.65,46q0,22.22-7.1,30.58T308.31,85Q294.45,85,278.83,84Zm16.72-63.69V71.68q1.87,0,6.1.06t6.66.05q8.47,0,11.6-5.39T323,46q0-15-3.13-20.41t-11.6-5.44Z"
       id="path360" />
  </g>
  <g
     id="SubText">
    <path
       class="cls-5"
       d="M79.72,128.42a36.89,36.89,0,0,1-7.8-.85,1,1,0,0,1-.78-1.06l.29-3.52a1,1,0,0,1,1-.92h0l7.27.16a4.55,4.55,0,0,0,2.07-.26c.06,0,.19-.26.19-.88s-.16-.88-.17-.89a3.1,3.1,0,0,0-1.22-.59L76.12,118a7.06,7.06,0,0,1-5.24-7.41c0-2.77.74-4.69,2.21-5.7s3.6-1.41,6.83-1.41a27.9,27.9,0,0,1,7.54.9,1,1,0,0,1,.72,1.06l-.32,3.33a1,1,0,0,1-1,.9h0c-1.84-.06-4.15-.1-6.88-.1a5.52,5.52,0,0,0-2.09.22h0a2.2,2.2,0,0,0-.11.8,1.37,1.37,0,0,0,.19.86,3.88,3.88,0,0,0,1.43.69l4.2,1.44a8,8,0,0,1,4.12,2.83A8.06,8.06,0,0,1,88.91,121c0,2.8-.74,4.76-2.2,5.84S83,128.42,79.72,128.42Z"
       id="path363" />
    <path
       class="cls-6"
       d="M79.91,104.5a26.79,26.79,0,0,1,7.26.86l-.32,3.33q-2.78-.1-6.91-.1a6.37,6.37,0,0,0-2.56.34q-.64.34-.64,1.68a2.15,2.15,0,0,0,.48,1.57,4.86,4.86,0,0,0,1.82.93l4.19,1.44A7,7,0,0,1,86.85,117a7.06,7.06,0,0,1,1.06,4q0,3.71-1.79,5t-6.4,1.33a35.74,35.74,0,0,1-7.58-.83l.29-3.52,7.3.16a5.45,5.45,0,0,0,2.61-.42,1.91,1.91,0,0,0,.66-1.73,2.25,2.25,0,0,0-.45-1.58,4.06,4.06,0,0,0-1.63-.85l-4.45-1.57a6.07,6.07,0,0,1-4.58-6.46q0-3.65,1.78-4.88t6.26-1.23m0-2c-3.44,0-5.85.52-7.4,1.59-1.75,1.21-2.64,3.41-2.64,6.52A8,8,0,0,0,75.77,119l4.47,1.57,0,0a4.71,4.71,0,0,1,.69.27c0,.06,0,.15,0,.26s0,0,0,.07a9,9,0,0,1-1.26.07l-7.25-.16h0a2,2,0,0,0-2,1.84l-.29,3.52a2,2,0,0,0,1.57,2.12,37.91,37.91,0,0,0,8,.88c3.55,0,6-.56,7.59-1.72,1.73-1.28,2.6-3.52,2.6-6.65a9,9,0,0,0-1.4-5.17,8.94,8.94,0,0,0-4.61-3.21l-4.2-1.44a5.89,5.89,0,0,1-.94-.39s0-.11,0-.18a11.77,11.77,0,0,1,1.2-.05c2.72,0,5,0,6.84.1h.07a2,2,0,0,0,2-1.81l.32-3.33a2,2,0,0,0-1.44-2.12,28.89,28.89,0,0,0-7.81-.94Z"
       id="path365" />
    <path
       class="cls-5"
       d="M96.55,128.38a5.44,5.44,0,0,1-4-1.5,5.53,5.53,0,0,1-1.47-4v-7.45H89.25a1,1,0,0,1-1-1v-3a1,1,0,0,1,.94-1l1.84-.11v-3.47a1,1,0,0,1,1-1h4.7a1,1,0,0,1,1,1v3.42h3.38a1,1,0,0,1,1,1v3.17a1,1,0,0,1-1,1H97.74v6.46a1.21,1.21,0,0,0,.08.53h0a2.17,2.17,0,0,0,.65.07h2a1,1,0,0,1,1,.85l.51,3.3a1,1,0,0,1-.66,1.1A14.56,14.56,0,0,1,96.55,128.38Z"
       id="path367" />
    <path
       class="cls-6"
       d="M96.74,106.81v4.42h4.38v3.17H96.74v7.46a1.65,1.65,0,0,0,.38,1.25,2,2,0,0,0,1.34.35h2l.51,3.3a13.52,13.52,0,0,1-4.45.64,4.46,4.46,0,0,1-3.33-1.2A4.55,4.55,0,0,1,92,122.84v-8.45H89.25v-3l2.78-.16v-4.42h4.7m0-2H92a2,2,0,0,0-2,2v2.53l-.9.05a2,2,0,0,0-1.89,2v3a2,2,0,0,0,2,2H90v6.45a6.49,6.49,0,0,0,1.76,4.75,6.4,6.4,0,0,0,4.75,1.8,15.55,15.55,0,0,0,5.11-.75,2,2,0,0,0,1.31-2.19l-.51-3.3a2,2,0,0,0-2-1.69H98.74v-5.06h2.38a2,2,0,0,0,2-2v-3.17a2,2,0,0,0-2-2H98.74v-2.42a2,2,0,0,0-2-2Z"
       id="path369" />
    <path
       class="cls-5"
       d="M103.43,128a1,1,0,0,1-1-1V111.22a1,1,0,0,1,1-1h3.68a1,1,0,0,1,1,.82l.13.69a10.06,10.06,0,0,1,5.71-2h.83a1,1,0,0,1,1,1.11l-.48,4.38a1,1,0,0,1-1,.89H113a14.41,14.41,0,0,0-3.83.82v10a1,1,0,0,1-1,1Z"
       id="path371" />
    <path
       class="cls-6"
       d="M114.76,110.78l-.48,4.38H113a17.27,17.27,0,0,0-4.83,1.09V127h-4.74V111.22h3.68l.42,2.3a10,10,0,0,1,6.4-2.75h.83m0-2h-.83a10.45,10.45,0,0,0-5.11,1.41,2,2,0,0,0-1.71-1h-3.68a2,2,0,0,0-2,2V127a2,2,0,0,0,2,2h4.74a2,2,0,0,0,2-2v-9.28a11.09,11.09,0,0,1,2.83-.56h1.28a2,2,0,0,0,2-1.78l.48-4.38a2,2,0,0,0-2-2.22Zm0,4h0Z"
       id="path373" />
    <path
       class="cls-5"
       d="M121,128.38a6.59,6.59,0,0,1-4.35-1.43,5.09,5.09,0,0,1-1.8-4.11v-1.6a4.58,4.58,0,0,1,1.64-3.72,6.41,6.41,0,0,1,4.19-1.28h4.61a1,1,0,0,0-.16-.55,2.82,2.82,0,0,0-1.41-.2c-1.73,0-3.94.08-6.59.25h-.06a1,1,0,0,1-1-.86l-.45-3.2a1,1,0,0,1,.81-1.12,47.57,47.57,0,0,1,8.4-.78c2.4,0,4.16.5,5.36,1.54s1.85,2.83,1.85,5.25V127a1,1,0,0,1-1,1H127.3a1,1,0,0,1-1-.8l-.12-.6A8.15,8.15,0,0,1,121,128.38Zm1.07-7.3c-.52,0-.55.12-.55.5v.61c0,.37,0,.63.86.63a5.27,5.27,0,0,0,2.94-1v-.7Z"
       id="path375" />
    <path
       class="cls-6"
       d="M124.84,110.78a7.1,7.1,0,0,1,4.7,1.3q1.5,1.29,1.5,4.5V127H127.3l-.48-2.4a7.36,7.36,0,0,1-5.82,2.78,5.6,5.6,0,0,1-3.71-1.2,4.11,4.11,0,0,1-1.44-3.34v-1.6a3.61,3.61,0,0,1,1.28-2.94,5.42,5.42,0,0,1,3.55-1.06h5.63v-.7a2.08,2.08,0,0,0-.56-1.63,3.49,3.49,0,0,0-2-.42q-2.62,0-6.66.26l-.45-3.2a46.32,46.32,0,0,1,8.22-.77m-2.46,13.06a6.53,6.53,0,0,0,3.94-1.54v-2.21h-4.26a1.36,1.36,0,0,0-1.54,1.5v.61q0,1.63,1.86,1.63m2.46-15.06a48.54,48.54,0,0,0-8.58.8,2,2,0,0,0-1.63,2.25l.45,3.2a2,2,0,0,0,1.07,1.5l-.3.23a5.6,5.6,0,0,0-2,4.49v1.6a6.12,6.12,0,0,0,2.16,4.88,7.56,7.56,0,0,0,5,1.66,9.17,9.17,0,0,0,4.68-1.22,2,2,0,0,0,1.63.84H131a2,2,0,0,0,2-2V116.57c0-2.73-.74-4.76-2.2-6s-3.36-1.78-6-1.78ZM122,122.09Z"
       id="path377" />
    <path
       class="cls-5"
       d="M140.42,128.38a5.44,5.44,0,0,1-4-1.5,5.53,5.53,0,0,1-1.47-4v-7.45h-1.78a1,1,0,0,1-1-1v-3a1,1,0,0,1,.94-1l1.84-.11v-3.47a1,1,0,0,1,1-1h4.7a1,1,0,0,1,1,1v3.42H145a1,1,0,0,1,1,1v3.17a1,1,0,0,1-1,1h-3.38v6.46a1.21,1.21,0,0,0,.08.53h0a2.17,2.17,0,0,0,.65.07h2a1,1,0,0,1,1,.85l.51,3.3a1,1,0,0,1-.66,1.1A14.56,14.56,0,0,1,140.42,128.38Z"
       id="path379" />
    <path
       class="cls-6"
       d="M140.61,106.81v4.42H145v3.17h-4.38v7.46a1.65,1.65,0,0,0,.38,1.25,2,2,0,0,0,1.34.35h2l.51,3.3a13.52,13.52,0,0,1-4.45.64,4.46,4.46,0,0,1-3.33-1.2,4.55,4.55,0,0,1-1.18-3.34v-8.45h-2.78v-3l2.78-.16v-4.42h4.7m0-2h-4.7a2,2,0,0,0-2,2v2.53l-.9.05a2,2,0,0,0-1.89,2v3a2,2,0,0,0,2,2h.78v6.45a6.49,6.49,0,0,0,1.76,4.75,6.4,6.4,0,0,0,4.75,1.8,15.55,15.55,0,0,0,5.11-.75,2,2,0,0,0,1.31-2.19l-.51-3.3a2,2,0,0,0-2-1.69h-1.74v-5.06H145a2,2,0,0,0,2-2v-3.17a2,2,0,0,0-2-2h-2.38v-2.42a2,2,0,0,0-2-2Z"
       id="path381" />
    <path
       class="cls-5"
       d="M154.85,128.38c-3.23,0-5.6-.75-7-2.22s-2.17-3.84-2.17-7c0-3.4.7-5.75,2.13-7.2s3.74-2.15,6.9-2.15c2.88,0,4.94.51,6.31,1.57a6,6,0,0,1,2.18,4.92,5.39,5.39,0,0,1-1.44,4,6.07,6.07,0,0,1-4.36,1.39h-4.43a1.18,1.18,0,0,0,.36.51,3.72,3.72,0,0,0,2.12.4,56.72,56.72,0,0,0,5.78-.35h.11a1,1,0,0,1,1,.85l.45,2.94a1,1,0,0,1-.56,1.05A17,17,0,0,1,154.85,128.38ZM156,116.85a1.12,1.12,0,0,0,.4-.05,2.2,2.2,0,0,0,.07-.58c0-.46-.1-.69-.18-.75a2.85,2.85,0,0,0-1.51-.23c-1.25,0-1.65.28-1.76.4a2.35,2.35,0,0,0-.41,1.21Z"
       id="path383" />
    <path
       class="cls-6"
       d="M154.66,110.78q3.94,0,5.7,1.36a5,5,0,0,1,1.79,4.14,4.42,4.42,0,0,1-1.14,3.31,5.12,5.12,0,0,1-3.66,1.1h-5.7a3.27,3.27,0,0,0,1,2.32,4.71,4.71,0,0,0,2.7.59,57.23,57.23,0,0,0,5.89-.35l.45,2.94a16.22,16.22,0,0,1-6.88,1.18q-4.45,0-6.34-1.92t-1.89-6.34q0-4.64,1.84-6.5t6.19-1.86m-3.1,7.07H156a1.37,1.37,0,0,0,1.17-.42,2,2,0,0,0,.3-1.22,1.83,1.83,0,0,0-.58-1.55,3.71,3.71,0,0,0-2.11-.43,3.37,3.37,0,0,0-2.5.72,4.74,4.74,0,0,0-.77,2.9m3.1-9.07c-3.49,0-6,.8-7.61,2.45s-2.42,4.23-2.42,7.9c0,3.52.81,6.05,2.46,7.74s4.2,2.52,7.76,2.52A17.94,17.94,0,0,0,162.6,128a2,2,0,0,0,1.11-2.1l-.45-2.94a2,2,0,0,0-1.27-1.57,4.9,4.9,0,0,0,.41-.36,6.34,6.34,0,0,0,1.74-4.75,6.94,6.94,0,0,0-2.57-5.73c-1.55-1.2-3.81-1.78-6.92-1.78Z"
       id="path385" />
    <path
       class="cls-5"
       d="M172,134.11c-3.46,0-5.78-.37-7.1-1.15-1.48-.86-2.22-2.39-2.22-4.56a4.34,4.34,0,0,1,.75-2.58,4.64,4.64,0,0,1,1.27-1.17,4,4,0,0,1-.39-2.42,4.26,4.26,0,0,1,.77-2,5.52,5.52,0,0,1-1.72-4.39,5.4,5.4,0,0,1,2.09-4.76c1.29-.89,3.37-1.33,6.36-1.33a17.37,17.37,0,0,1,4.26.45h5a1,1,0,0,1,1,1.11l-.22,2.08a1,1,0,0,1-.87.89l-.84.11a8.58,8.58,0,0,1,.11,1.43,5.38,5.38,0,0,1-2.07,4.72c-1.21.84-3.11,1.28-5.81,1.33l3.51.41A6.53,6.53,0,0,1,180,124a5.56,5.56,0,0,1,1.35,4c0,2.38-.77,4-2.3,4.93C177.64,133.72,175.36,134.11,172,134.11ZM169.59,127a1.08,1.08,0,0,0-.37.78c0,.35.07.54.12.56a14.83,14.83,0,0,0,5.3,0s.16-.07.16-.48a1.27,1.27,0,0,0,0-.19,10.61,10.61,0,0,0-1.7-.29Zm2.22-12.2a4,4,0,0,0-1.88.26c-.12.08-.19.37-.19.76,0,.23,0,.64.22.77a3.65,3.65,0,0,0,1.85.27,3.56,3.56,0,0,0,1.82-.27c.19-.13.22-.54.22-.77,0-.47-.1-.71-.19-.76A3.89,3.89,0,0,0,171.81,114.82Z"
       id="path387" />
    <path
       class="cls-6"
       d="M171.84,110.78a16,16,0,0,1,4.13.45h5.09l-.22,2.08-2,.26a5.8,5.8,0,0,1,.38,2.27,4.43,4.43,0,0,1-1.65,3.9q-1.65,1.15-5.78,1.15a22.82,22.82,0,0,1-2.72-.16,1.14,1.14,0,0,0-.14,1.15,1.17,1.17,0,0,0,1.07.74l5.73.67a5.65,5.65,0,0,1,3.5,1.41,4.59,4.59,0,0,1,1.07,3.3q0,3-1.81,4.06T172,133.11q-4.86,0-6.59-1t-1.73-3.7a3.35,3.35,0,0,1,.56-2,4.83,4.83,0,0,1,1.94-1.42,3.18,3.18,0,0,1,.51-4.86q-2.34-1.09-2.34-4.26a4.45,4.45,0,0,1,1.66-3.94q1.66-1.15,5.79-1.15m0,7.1a4.5,4.5,0,0,0,2.38-.45,1.8,1.8,0,0,0,.66-1.6,1.77,1.77,0,0,0-.64-1.6,4.8,4.8,0,0,0-2.4-.42,4.89,4.89,0,0,0-2.42.42,1.75,1.75,0,0,0-.66,1.6,1.8,1.8,0,0,0,.66,1.6,4.58,4.58,0,0,0,2.42.45m.16,11.71a9,9,0,0,0,3.09-.34,1.36,1.36,0,0,0,.75-1.39q0-.83-.48-1.06a8.57,8.57,0,0,0-2.11-.42l-4-.42a2.36,2.36,0,0,0-1,1.82q0,1.15.7,1.47a9,9,0,0,0,3,.32m-.13-20.82c-3.2,0-5.47.49-6.93,1.51-1.15.8-2.53,2.41-2.53,5.58a6.77,6.77,0,0,0,1.46,4.54,5.57,5.57,0,0,0-.5,1.7,5.15,5.15,0,0,0,.16,2.21,5.1,5.1,0,0,0-.86.93,5.32,5.32,0,0,0-.93,3.16c0,3.17,1.48,4.7,2.72,5.42,1.5.87,3.91,1.28,7.6,1.28s5.94-.42,7.49-1.33c1.28-.75,2.8-2.36,2.8-5.79a6.52,6.52,0,0,0-1.63-4.68,6.15,6.15,0,0,0-2.59-1.56,5.79,5.79,0,0,0,.62-.38c1.14-.8,2.5-2.41,2.5-5.54q0-.29,0-.57a2,2,0,0,0,1.6-1.75l.22-2.08a2,2,0,0,0-2-2.21h-4.83a18.37,18.37,0,0,0-4.38-.45Zm-.82,7.07c.2,0,.46,0,.79,0s.58,0,.78,0c-.19,0-.45,0-.78,0s-.59,0-.79,0Z"
       id="path389" />
    <path
       class="cls-5"
       d="M183.23,128a1,1,0,0,1-1-1V111.22a1,1,0,0,1,1-1h4.7a1,1,0,0,1,1,1V127a1,1,0,0,1-1,1Zm1.28-18.27a2.2,2.2,0,0,1-2.38-2.38v-1.73a2.2,2.2,0,0,1,2.38-2.38h2.11a2.2,2.2,0,0,1,2.38,2.38v1.73a2.2,2.2,0,0,1-2.38,2.38Z"
       id="path391" />
    <path
       class="cls-6"
       d="M186.63,104.25a1.22,1.22,0,0,1,1.38,1.38v1.73a1.22,1.22,0,0,1-1.38,1.38h-2.11a1.22,1.22,0,0,1-1.38-1.38v-1.73a1.22,1.22,0,0,1,1.38-1.38h2.11m1.31,7V127h-4.7V111.22h4.7m-1.31-9h-2.11a3.2,3.2,0,0,0-3.38,3.38v1.73a3.42,3.42,0,0,0,.82,2.33,2,2,0,0,0-.73,1.54V127a2,2,0,0,0,2,2h4.7a2,2,0,0,0,2-2V111.22a2,2,0,0,0-.74-1.56,3.42,3.42,0,0,0,.81-2.32v-1.73a3.2,3.2,0,0,0-3.38-3.38Z"
       id="path393" />
    <path
       class="cls-5"
       d="M198.85,128.38c-3.22,0-5.46-.71-6.85-2.18s-2.05-3.78-2.05-7.1.68-5.68,2.07-7.14,3.66-2.18,6.9-2.18a15.57,15.57,0,0,1,6.23,1.08,1,1,0,0,1,.58,1.09l-.51,2.94a1,1,0,0,1-1,.83h0l-4.49-.06a3.14,3.14,0,0,0-2.24.59c-.21.24-.57.93-.57,2.86s.36,2.62.57,2.86a3.14,3.14,0,0,0,2.24.59,34.35,34.35,0,0,0,4.69-.28h.14a1,1,0,0,1,1,.87l.42,3.07a1,1,0,0,1-.59,1.05A16.44,16.44,0,0,1,198.85,128.38Z"
       id="path395" />
    <path
       class="cls-6"
       d="M198.91,110.78a14.53,14.53,0,0,1,5.82,1l-.51,2.94-4.51-.06a3.87,3.87,0,0,0-3,.93,8,8,0,0,0,0,7,3.87,3.87,0,0,0,3,.93,35.15,35.15,0,0,0,4.83-.29l.42,3.07a15.4,15.4,0,0,1-6.11,1.06q-4.35,0-6.13-1.87t-1.78-6.42q0-4.57,1.79-6.45t6.18-1.87m0-2c-3.52,0-6,.81-7.62,2.49s-2.35,4.21-2.35,7.83.76,6.14,2.33,7.79,4.07,2.5,7.58,2.5a17.42,17.42,0,0,0,6.91-1.22,2,2,0,0,0,1.19-2.1l-.42-3.07a2,2,0,0,0-2-1.73l-.28,0a33.35,33.35,0,0,1-4.55.27,2.68,2.68,0,0,1-1.5-.25h0a4.57,4.57,0,0,1-.31-2.19,4.39,4.39,0,0,1,.32-2.21h0a2.85,2.85,0,0,1,1.48-.24l4.48.06h0a2,2,0,0,0,2-1.66l.51-2.94a2,2,0,0,0-1.16-2.17,16.31,16.31,0,0,0-6.63-1.16Z"
       id="path397" />
    <path
       class="cls-5"
       d="M219.11,128.1a6,6,0,0,1-4.19-1.46,5.26,5.26,0,0,1-1.67-4V109.27a5.27,5.27,0,0,1,1.67-4,6,6,0,0,1,4.19-1.46c4.83,0,8.31.11,10.35.33a1,1,0,0,1,.89,1.06l-.22,3.62a1,1,0,0,1-1,.94h-8.48a.88.88,0,0,0-.42.07,1.31,1.31,0,0,0-.08.57v2.36h7.8a1,1,0,0,1,1,1v3.52a1,1,0,0,1-1,1h-7.8v3.26a1.24,1.24,0,0,0,.09.61h0a1.07,1.07,0,0,0,.41.06h8.48a1,1,0,0,1,1,.94l.22,3.58a1,1,0,0,1-.89,1.06C227.42,128,223.94,128.1,219.11,128.1Z"
       id="path399" />
    <path
       class="cls-6"
       d="M219.11,104.82q7.23,0,10.24.32l-.22,3.62h-8.48a1.5,1.5,0,0,0-1.15.38,1.82,1.82,0,0,0-.35,1.25v3.36h8.8v3.52h-8.8v4.26a1.87,1.87,0,0,0,.35,1.28,1.5,1.5,0,0,0,1.15.38h8.48l.22,3.58q-3,.32-10.24.32a5,5,0,0,1-3.52-1.2,4.28,4.28,0,0,1-1.34-3.25V109.27a4.28,4.28,0,0,1,1.34-3.25,5,5,0,0,1,3.52-1.2m0-2a7,7,0,0,0-4.87,1.73,6.3,6.3,0,0,0-2,4.69v13.41a6.33,6.33,0,0,0,2,4.72,7,7,0,0,0,4.87,1.72c4.94,0,8.36-.11,10.45-.33a2,2,0,0,0,1.78-2.11l-.22-3.58a2,2,0,0,0-2-1.88h-8v-1.92h6.8a2,2,0,0,0,2-2v-3.52a2,2,0,0,0-2-2h-6.8v-1h8a2,2,0,0,0,2-1.88l.22-3.62a2,2,0,0,0-1.79-2.11c-2.09-.22-5.51-.33-10.45-.33Z"
       id="path401" />
    <path
       class="cls-5"
       d="M242.91,128a1,1,0,0,1-1-1V116.63a2,2,0,0,0-.11-.82h0a2.07,2.07,0,0,0-.43,0,8.74,8.74,0,0,0-3.38,1.07V127a1,1,0,0,1-1,1h-4.74a1,1,0,0,1-1-1V111.22a1,1,0,0,1,1-1h3.84a1,1,0,0,1,1,.85l.1.7a10.87,10.87,0,0,1,6-2,5.45,5.45,0,0,1,4,1.41,5.35,5.35,0,0,1,1.43,4V127a1,1,0,0,1-1,1Z"
       id="path403" />
    <path
       class="cls-6"
       d="M243.2,110.78a4.48,4.48,0,0,1,3.28,1.12,4.38,4.38,0,0,1,1.14,3.26V127h-4.7V116.63a2.33,2.33,0,0,0-.34-1.46,1.5,1.5,0,0,0-1.2-.4,11.05,11.05,0,0,0-4.38,1.44V127h-4.74V111.22h3.84l.35,2.34a10.77,10.77,0,0,1,6.75-2.78m0-2a11.25,11.25,0,0,0-5.37,1.45,2,2,0,0,0-1.73-1h-3.84a2,2,0,0,0-2,2V127a2,2,0,0,0,2,2H237a2,2,0,0,0,2-2v-9.51a9.65,9.65,0,0,1,1.92-.65V127a2,2,0,0,0,2,2h4.7a2,2,0,0,0,2-2V115.16a6.31,6.31,0,0,0-1.73-4.69,6.41,6.41,0,0,0-4.68-1.7Z"
       id="path405" />
    <path
       class="cls-5"
       d="M256.1,128a2.48,2.48,0,0,1-2.48-1.8l-5.18-14.65a1,1,0,0,1,.94-1.33h5a1,1,0,0,1,1,.72l2.8,9.72,2.8-9.72a1,1,0,0,1,1-.72h5a1,1,0,0,1,.94,1.33l-5.18,14.66a2.48,2.48,0,0,1-2.48,1.79Z"
       id="path407" />
    <path
       class="cls-6"
       d="M266.91,111.22l-5.18,14.66a1.5,1.5,0,0,1-1.54,1.12h-4.1a1.5,1.5,0,0,1-1.54-1.12l-5.18-14.66h5l2.85,9.89q.35,1.31.67,2.82h.42l.74-2.82,2.85-9.89h5m0-2h-5a2,2,0,0,0-1.92,1.45l-1.84,6.38-1.84-6.38a2,2,0,0,0-1.92-1.45h-5a2,2,0,0,0-1.89,2.67l5.18,14.66A3.5,3.5,0,0,0,256.1,129h4.1a3.5,3.5,0,0,0,3.43-2.47l5.18-14.64a2,2,0,0,0-1.89-2.67Zm0,4h0Z"
       id="path409" />
    <path
       class="cls-5"
       d="M268.93,128a1,1,0,0,1-1-1V111.22a1,1,0,0,1,1-1h4.7a1,1,0,0,1,1,1V127a1,1,0,0,1-1,1Zm1.28-18.27a2.2,2.2,0,0,1-2.38-2.38v-1.73a2.2,2.2,0,0,1,2.38-2.38h2.11a2.2,2.2,0,0,1,2.38,2.38v1.73a2.2,2.2,0,0,1-2.38,2.38Z"
       id="path411" />
    <path
       class="cls-6"
       d="M272.32,104.25a1.22,1.22,0,0,1,1.38,1.38v1.73a1.22,1.22,0,0,1-1.38,1.38h-2.11a1.22,1.22,0,0,1-1.38-1.38v-1.73a1.22,1.22,0,0,1,1.38-1.38h2.11m1.31,7V127h-4.7V111.22h4.7m-1.31-9h-2.11a3.2,3.2,0,0,0-3.38,3.38v1.73a3.42,3.42,0,0,0,.82,2.33,2,2,0,0,0-.73,1.54V127a2,2,0,0,0,2,2h4.7a2,2,0,0,0,2-2V111.22a2,2,0,0,0-.74-1.56,3.42,3.42,0,0,0,.81-2.32v-1.73a3.2,3.2,0,0,0-3.38-3.38Z"
       id="path413" />
    <path
       class="cls-5"
       d="M277.31,128a1,1,0,0,1-1-1V111.22a1,1,0,0,1,1-1H281a1,1,0,0,1,1,.82l.13.69a10.06,10.06,0,0,1,5.71-2h.83a1,1,0,0,1,1,1.11l-.48,4.38a1,1,0,0,1-1,.89h-1.28A14.41,14.41,0,0,0,283,117v10a1,1,0,0,1-1,1Z"
       id="path415" />
    <path
       class="cls-6"
       d="M288.64,110.78l-.48,4.38h-1.28a17.27,17.27,0,0,0-4.83,1.09V127h-4.74V111.22H281l.42,2.3a10,10,0,0,1,6.4-2.75h.83m0-2h-.83a10.45,10.45,0,0,0-5.11,1.41,2,2,0,0,0-1.71-1h-3.68a2,2,0,0,0-2,2V127a2,2,0,0,0,2,2H282a2,2,0,0,0,2-2v-9.28a11.09,11.09,0,0,1,2.83-.56h1.28a2,2,0,0,0,2-1.78l.48-4.38a2,2,0,0,0-2-2.22Zm0,4h0Z"
       id="path417" />
    <path
       class="cls-5"
       d="M297.82,128.42c-3.28,0-5.57-.71-7-2.17s-2.13-3.78-2.13-7.12.69-5.7,2.12-7.16,3.73-2.19,7-2.19,5.56.74,7,2.21,2.12,3.81,2.12,7.14-.7,5.66-2.13,7.12S301.08,128.42,297.82,128.42Zm0-13.09c-.62,0-1.41.09-1.7.51-.14.21-.47,1-.47,3.29s.33,3,.47,3.22c.28.43,1.08.51,1.7.51s1.36-.09,1.65-.52c.14-.21.48-.95.48-3.21s-.33-3.06-.48-3.28C299.2,115.42,298.42,115.33,297.82,115.33Z"
       id="path419" />
    <path
       class="cls-6"
       d="M297.82,110.78q4.42,0,6.26,1.9t1.84,6.45q0,4.54-1.84,6.42t-6.26,1.87q-4.45,0-6.29-1.87t-1.84-6.42q0-4.58,1.84-6.46t6.29-1.89m0,13.09a2.8,2.8,0,0,0,2.48-1,7.38,7.38,0,0,0,.66-3.78,7.72,7.72,0,0,0-.64-3.82,2.78,2.78,0,0,0-2.5-1,2.84,2.84,0,0,0-2.53,1,7.71,7.71,0,0,0-.64,3.84,7.53,7.53,0,0,0,.64,3.78,2.84,2.84,0,0,0,2.53,1m0-15.09c-3.56,0-6.09.82-7.72,2.49s-2.41,4.23-2.41,7.86.79,6.17,2.41,7.82,4.16,2.47,7.71,2.47,6-.81,7.68-2.47,2.41-4.21,2.41-7.82-.79-6.17-2.4-7.84-4.15-2.51-7.69-2.51Zm-.88,7.67a2.4,2.4,0,0,1,.88-.12,2.2,2.2,0,0,1,.84.11,7.64,7.64,0,0,1,.29,2.69,7.19,7.19,0,0,1-.29,2.62,2.2,2.2,0,0,1-.84.12,2.39,2.39,0,0,1-.89-.12,7.64,7.64,0,0,1-.28-2.62,8,8,0,0,1,.28-2.68Z"
       id="path421" />
    <path
       class="cls-5"
       d="M319.49,128a1,1,0,0,1-1-1V116.63a2,2,0,0,0-.11-.82h0a2.07,2.07,0,0,0-.43,0,8.74,8.74,0,0,0-3.38,1.07V127a1,1,0,0,1-1,1h-4.74a1,1,0,0,1-1-1V111.22a1,1,0,0,1,1-1h3.84a1,1,0,0,1,1,.85l.1.7a10.87,10.87,0,0,1,6-2,5.45,5.45,0,0,1,4,1.41,5.35,5.35,0,0,1,1.43,4V127a1,1,0,0,1-1,1Z"
       id="path423" />
    <path
       class="cls-6"
       d="M319.78,110.78a4.48,4.48,0,0,1,3.28,1.12,4.38,4.38,0,0,1,1.14,3.26V127h-4.7V116.63a2.33,2.33,0,0,0-.34-1.46,1.5,1.5,0,0,0-1.2-.4,11.05,11.05,0,0,0-4.38,1.44V127h-4.74V111.22h3.84l.35,2.34a10.77,10.77,0,0,1,6.75-2.78m0-2a11.25,11.25,0,0,0-5.37,1.45,2,2,0,0,0-1.73-1h-3.84a2,2,0,0,0-2,2V127a2,2,0,0,0,2,2h4.74a2,2,0,0,0,2-2v-9.51a9.65,9.65,0,0,1,1.92-.65V127a2,2,0,0,0,2,2h4.7a2,2,0,0,0,2-2V115.16a6.31,6.31,0,0,0-1.73-4.69,6.41,6.41,0,0,0-4.68-1.7Z"
       id="path425" />
    <path
       class="cls-5"
       d="M347.3,128a1,1,0,0,1-1-1V116.63a1.7,1.7,0,0,0-.12-.79h0a1.83,1.83,0,0,0-.55-.06,2.82,2.82,0,0,0-1.09.21,11.94,11.94,0,0,0-1.43.76V127a1,1,0,0,1-1,1h-4.54a1,1,0,0,1-1-1V116.63a1.39,1.39,0,0,0-.12-.75,1,1,0,0,0-.57-.11,5.58,5.58,0,0,0-2.49.95V127a1,1,0,0,1-1,1h-4.7a1,1,0,0,1-1-1V111.22a1,1,0,0,1,1-1h3.78a1,1,0,0,1,1,.86l.08.55a9.05,9.05,0,0,1,5.27-1.86,4.94,4.94,0,0,1,4.39,2,8.93,8.93,0,0,1,5.43-2,4.91,4.91,0,0,1,5.38,5.38V127a1,1,0,0,1-1,1Z"
       id="path427" />
    <path
       class="cls-6"
       d="M347.62,110.78a3.93,3.93,0,0,1,4.38,4.38V127h-4.7V116.63a2.26,2.26,0,0,0-.35-1.44,1.66,1.66,0,0,0-1.31-.42,3.84,3.84,0,0,0-1.47.29,15.55,15.55,0,0,0-2,1.12V127h-4.54V116.63a2.06,2.06,0,0,0-.4-1.44,1.74,1.74,0,0,0-1.3-.42,7.52,7.52,0,0,0-3.49,1.38V127h-4.7V111.22h3.78l.32,2.3a9,9,0,0,1,6-2.75q3.2,0,4.06,2.56a8.49,8.49,0,0,1,5.76-2.56m0-2a9.57,9.57,0,0,0-5.26,1.64,6.2,6.2,0,0,0-4.56-1.64,9.48,9.48,0,0,0-4.69,1.31,2,2,0,0,0-1.64-.86h-3.78a2,2,0,0,0-2,2V127a2,2,0,0,0,2,2h4.7a2,2,0,0,0,2-2v-9.68a6,6,0,0,1,1.18-.49V127a2,2,0,0,0,2,2h4.54a2,2,0,0,0,2-2v-9.68a7.62,7.62,0,0,1,.8-.41,1.85,1.85,0,0,1,.38-.11V127a2,2,0,0,0,2,2H352a2,2,0,0,0,2-2V115.16a5.9,5.9,0,0,0-6.38-6.38Z"
       id="path429" />
    <path
       class="cls-5"
       d="M363,128.38c-3.23,0-5.6-.75-7-2.22s-2.17-3.83-2.17-7c0-3.4.7-5.76,2.13-7.2s3.69-2.15,6.9-2.15c2.88,0,4.94.51,6.31,1.57a6,6,0,0,1,2.18,4.92,5.4,5.4,0,0,1-1.44,4,6.07,6.07,0,0,1-4.36,1.39h-4.43a1.18,1.18,0,0,0,.36.51,3.72,3.72,0,0,0,2.12.4,56.69,56.69,0,0,0,5.78-.35h.11a1,1,0,0,1,1,.85l.45,2.94a1,1,0,0,1-.56,1.05A17,17,0,0,1,363,128.38Zm1.18-11.54a1.09,1.09,0,0,0,.4-.05,2.18,2.18,0,0,0,.07-.58c0-.46-.09-.69-.18-.75a2.85,2.85,0,0,0-1.51-.23c-1.25,0-1.65.28-1.76.4a2.35,2.35,0,0,0-.4,1.21Z"
       id="path431" />
    <path
       class="cls-6"
       d="M362.82,110.78q3.94,0,5.7,1.36a5,5,0,0,1,1.79,4.14,4.42,4.42,0,0,1-1.14,3.31,5.12,5.12,0,0,1-3.66,1.1h-5.7a3.27,3.27,0,0,0,1,2.32,4.71,4.71,0,0,0,2.7.59,57.19,57.19,0,0,0,5.89-.35l.45,2.94a16.22,16.22,0,0,1-6.88,1.18q-4.45,0-6.34-1.92t-1.89-6.34q0-4.64,1.84-6.5t6.19-1.86m-3.1,7.07h4.48a1.37,1.37,0,0,0,1.17-.42,2,2,0,0,0,.3-1.22,1.83,1.83,0,0,0-.58-1.55,3.71,3.71,0,0,0-2.11-.43,3.37,3.37,0,0,0-2.5.72,4.75,4.75,0,0,0-.77,2.9m3.1-9.07c-3.49,0-6,.8-7.61,2.45s-2.42,4.23-2.42,7.9c0,3.52.81,6.05,2.46,7.74s4.2,2.52,7.76,2.52a17.94,17.94,0,0,0,7.75-1.38,2,2,0,0,0,1.11-2.1l-.45-2.94a2,2,0,0,0-1.27-1.57,4.9,4.9,0,0,0,.41-.36,6.34,6.34,0,0,0,1.74-4.75,6.94,6.94,0,0,0-2.57-5.73c-1.55-1.2-3.81-1.78-6.92-1.78Z"
       id="path433" />
    <path
       class="cls-5"
       d="M383.71,128a1,1,0,0,1-1-1V116.63a2,2,0,0,0-.11-.82h0a2.08,2.08,0,0,0-.43,0,8.74,8.74,0,0,0-3.38,1.07V127a1,1,0,0,1-1,1h-4.74a1,1,0,0,1-1-1V111.22a1,1,0,0,1,1-1h3.84a1,1,0,0,1,1,.85l.1.7a10.88,10.88,0,0,1,6-2,5.45,5.45,0,0,1,4,1.41,5.35,5.35,0,0,1,1.43,4V127a1,1,0,0,1-1,1Z"
       id="path435" />
    <path
       class="cls-6"
       d="M384,110.78a4.48,4.48,0,0,1,3.28,1.12,4.39,4.39,0,0,1,1.14,3.26V127h-4.7V116.63a2.34,2.34,0,0,0-.34-1.46,1.5,1.5,0,0,0-1.2-.4,11.05,11.05,0,0,0-4.38,1.44V127h-4.74V111.22h3.84l.35,2.34a10.77,10.77,0,0,1,6.75-2.78m0-2a11.25,11.25,0,0,0-5.37,1.45,2,2,0,0,0-1.73-1h-3.84a2,2,0,0,0-2,2V127a2,2,0,0,0,2,2h4.74a2,2,0,0,0,2-2v-9.51a9.65,9.65,0,0,1,1.92-.65V127a2,2,0,0,0,2,2h4.7a2,2,0,0,0,2-2V115.16a6.31,6.31,0,0,0-1.73-4.69,6.4,6.4,0,0,0-4.68-1.7Z"
       id="path437" />
    <path
       class="cls-5"
       d="M397.86,128.38a5.44,5.44,0,0,1-4-1.5,5.53,5.53,0,0,1-1.47-4v-7.45h-1.78a1,1,0,0,1-1-1v-3a1,1,0,0,1,.94-1l1.84-.11v-3.47a1,1,0,0,1,1-1H398a1,1,0,0,1,1,1v3.42h3.38a1,1,0,0,1,1,1v3.17a1,1,0,0,1-1,1H399v6.46a1.21,1.21,0,0,0,.08.53h0a2.12,2.12,0,0,0,.65.08h2a1,1,0,0,1,1,.85l.51,3.3a1,1,0,0,1-.66,1.1A14.56,14.56,0,0,1,397.86,128.38Z"
       id="path439" />
    <path
       class="cls-6"
       d="M398,106.81v4.42h4.38v3.17H398v7.46a1.64,1.64,0,0,0,.38,1.25,2,2,0,0,0,1.34.35h2l.51,3.3a13.52,13.52,0,0,1-4.45.64,4.46,4.46,0,0,1-3.33-1.2,4.55,4.55,0,0,1-1.18-3.34v-8.45h-2.78v-3l2.78-.16v-4.42H398m0-2h-4.7a2,2,0,0,0-2,2v2.53l-.9.05a2,2,0,0,0-1.89,2v3a2,2,0,0,0,2,2h.78v6.45a6.49,6.49,0,0,0,1.76,4.75,6.4,6.4,0,0,0,4.75,1.79,15.54,15.54,0,0,0,5.11-.75,2,2,0,0,0,1.31-2.19l-.51-3.3a2,2,0,0,0-2-1.69H400v-5.06h2.38a2,2,0,0,0,2-2v-3.17a2,2,0,0,0-2-2H400v-2.42a2,2,0,0,0-2-2Z"
       id="path441" />
    <path
       class="cls-5"
       d="M409.09,128.38a6.59,6.59,0,0,1-4.35-1.43,5.09,5.09,0,0,1-1.8-4.11v-1.6a4.58,4.58,0,0,1,1.64-3.72,6.41,6.41,0,0,1,4.19-1.28h4.61a1,1,0,0,0-.16-.55,2.81,2.81,0,0,0-1.41-.2c-1.73,0-3.94.08-6.59.25h-.06a1,1,0,0,1-1-.86l-.45-3.2a1,1,0,0,1,.81-1.12,47.57,47.57,0,0,1,8.4-.78c2.4,0,4.16.5,5.36,1.54s1.85,2.83,1.85,5.25V127a1,1,0,0,1-1,1h-3.74a1,1,0,0,1-1-.8l-.12-.6A8.15,8.15,0,0,1,409.09,128.38Zm1.07-7.3c-.52,0-.55.12-.55.5v.61c0,.37,0,.63.86.63a5.27,5.27,0,0,0,2.94-1v-.7Z"
       id="path443" />
    <path
       class="cls-6"
       d="M412.93,110.78a7.1,7.1,0,0,1,4.7,1.3q1.5,1.29,1.5,4.5V127h-3.74l-.48-2.4a7.36,7.36,0,0,1-5.82,2.78,5.6,5.6,0,0,1-3.71-1.2,4.11,4.11,0,0,1-1.44-3.34v-1.6a3.61,3.61,0,0,1,1.28-2.94,5.43,5.43,0,0,1,3.55-1.06h5.63v-.7a2.08,2.08,0,0,0-.56-1.63,3.49,3.49,0,0,0-2-.42q-2.62,0-6.66.26l-.45-3.2a46.32,46.32,0,0,1,8.22-.77m-2.46,13.06a6.53,6.53,0,0,0,3.94-1.54v-2.21h-4.26a1.36,1.36,0,0,0-1.54,1.5v.61q0,1.63,1.86,1.63m2.46-15.06a48.54,48.54,0,0,0-8.58.8,2,2,0,0,0-1.63,2.25l.45,3.2a2,2,0,0,0,1.07,1.5l-.3.23a5.6,5.6,0,0,0-2,4.49v1.6a6.12,6.12,0,0,0,2.16,4.88,7.56,7.56,0,0,0,5,1.66,9.17,9.17,0,0,0,4.68-1.22,2,2,0,0,0,1.63.84h3.74a2,2,0,0,0,2-2V116.57c0-2.73-.74-4.76-2.2-6s-3.36-1.78-6-1.78Z"
       id="path445" />
    <path
       class="cls-5"
       d="M427.14,128.38a5.66,5.66,0,0,1-4-1.41,5.15,5.15,0,0,1-1.53-3.95V104.6a1,1,0,0,1,1-1h4.7a1,1,0,0,1,1,1v17.25c0,.38,0,.6.79.6h1.28a1,1,0,0,1,1,.84l.54,3.3a1,1,0,0,1-.52,1A9.28,9.28,0,0,1,427.14,128.38Z"
       id="path447" />
    <path
       class="cls-6"
       d="M427.3,104.6v17.25q0,1.6,1.79,1.6h1.28l.54,3.3a8.47,8.47,0,0,1-3.78.64,4.68,4.68,0,0,1-3.33-1.14,4.18,4.18,0,0,1-1.22-3.22V104.6h4.7m0-2h-4.7a2,2,0,0,0-2,2V123a6.11,6.11,0,0,0,1.85,4.68,6.63,6.63,0,0,0,4.69,1.67,10.2,10.2,0,0,0,4.71-.87,2,2,0,0,0,1-2.1l-.54-3.3a2,2,0,0,0-2-1.67H429.3V104.6a2,2,0,0,0-2-2Z"
       id="path449" />
    <path
       class="cls-5"
       d="M451.77,128a1,1,0,0,1-1-.73l-1.4-5.06h-6.06l-1.4,5.06a1,1,0,0,1-1,.73h-5a1,1,0,0,1-1-1.29l6.37-20.8a2.47,2.47,0,0,1,1-1.44,2.78,2.78,0,0,1,1.68-.55h4.61a2.57,2.57,0,0,1,2.67,2l6.35,20.75a1,1,0,0,1-1,1.29Zm-4-11.57-1.44-5.24-1.44,5.24Z"
       id="path451" />
    <path
       class="cls-6"
       d="M448.67,104.92a1.57,1.57,0,0,1,1.7,1.28l6.37,20.8h-5l-1.6-5.79h-7.58L441,127h-5l6.37-20.8a1.53,1.53,0,0,1,.61-.93,1.79,1.79,0,0,1,1.09-.35h4.61m-5.06,12.51h5.5l-1.86-6.75q-.38-1.6-.45-2.08H446q-.06.32-.22,1t-.26,1.06l-1.86,6.75m5.06-14.51h-4.61a3.81,3.81,0,0,0-2.27.74,3.52,3.52,0,0,0-1.35,2l-6.35,20.74A2,2,0,0,0,436,129h5a2,2,0,0,0,1.93-1.47l1.19-4.32h4.54l1.19,4.32a2,2,0,0,0,1.93,1.47h5a2,2,0,0,0,1.91-2.59l-6.35-20.76a3.55,3.55,0,0,0-3.62-2.74Zm-2.43,12.51.13-.47.13.47Z"
       id="path453" />
    <path
       class="cls-5"
       d="M458.4,128a1,1,0,0,1-1-1V111.22a1,1,0,0,1,1-1h3.68a1,1,0,0,1,1,.82l.12.69a10.06,10.06,0,0,1,5.71-2h.83a1,1,0,0,1,1,1.11l-.48,4.38a1,1,0,0,1-1,.89H468a14.42,14.42,0,0,0-3.83.82v10a1,1,0,0,1-1,1Z"
       id="path455" />
    <path
       class="cls-6"
       d="M469.73,110.78l-.48,4.38H468a17.27,17.27,0,0,0-4.83,1.09V127H458.4V111.22h3.68l.42,2.3a9.94,9.94,0,0,1,6.4-2.75h.83m0-2h-.83a10.45,10.45,0,0,0-5.11,1.41,2,2,0,0,0-1.71-1H458.4a2,2,0,0,0-2,2V127a2,2,0,0,0,2,2h4.74a2,2,0,0,0,2-2v-9.28a11.09,11.09,0,0,1,2.83-.56h1.28a2,2,0,0,0,2-1.78l.48-4.38a2,2,0,0,0-2-2.22Zm0,4h0Z"
       id="path457" />
    <path
       class="cls-5"
       d="M478.69,128.38c-3.22,0-5.46-.71-6.85-2.18s-2-3.78-2-7.1.68-5.68,2.07-7.14,3.66-2.18,6.9-2.18a15.59,15.59,0,0,1,6.23,1.08,1,1,0,0,1,.58,1.09l-.51,2.94a1,1,0,0,1-1,.83h0l-4.49-.06a3.14,3.14,0,0,0-2.24.59c-.21.24-.57.93-.57,2.86s.36,2.62.57,2.86a3.14,3.14,0,0,0,2.24.59,34.35,34.35,0,0,0,4.69-.28h.14a1,1,0,0,1,1,.87l.42,3.07a1,1,0,0,1-.59,1.05A16.44,16.44,0,0,1,478.69,128.38Z"
       id="path459" />
    <path
       class="cls-6"
       d="M478.75,110.78a14.54,14.54,0,0,1,5.82,1l-.51,2.94-4.51-.06a3.87,3.87,0,0,0-3,.93,8,8,0,0,0,0,7,3.87,3.87,0,0,0,3,.93,35.15,35.15,0,0,0,4.83-.29l.42,3.07a15.4,15.4,0,0,1-6.11,1.06q-4.35,0-6.13-1.87t-1.78-6.42q0-4.57,1.79-6.45t6.18-1.87m0-2c-3.53,0-6,.81-7.62,2.49s-2.35,4.21-2.35,7.83.76,6.14,2.32,7.79,4.07,2.5,7.58,2.5a17.42,17.42,0,0,0,6.91-1.22,2,2,0,0,0,1.19-2.1l-.42-3.07a2,2,0,0,0-2-1.73l-.28,0a33.35,33.35,0,0,1-4.55.27,2.68,2.68,0,0,1-1.5-.25h0a4.57,4.57,0,0,1-.31-2.19,4.4,4.4,0,0,1,.32-2.21h0a2.86,2.86,0,0,1,1.48-.24l4.48.06h0a2,2,0,0,0,2-1.66l.51-2.94a2,2,0,0,0-1.16-2.17,16.31,16.31,0,0,0-6.63-1.16Z"
       id="path461" />
    <path
       class="cls-5"
       d="M498,128a1,1,0,0,1-1-1V116.63a2,2,0,0,0-.11-.82h0a2.08,2.08,0,0,0-.43,0,8.2,8.2,0,0,0-3.38,1V127a1,1,0,0,1-1,1h-4.74a1,1,0,0,1-1-1V104.6a1,1,0,0,1,1-1h4.77a1,1,0,0,1,1,1v5.47c0,.41,0,.82,0,1.23a10.34,10.34,0,0,1,5.22-1.53,5.45,5.45,0,0,1,4,1.41,5.35,5.35,0,0,1,1.43,4V127a1,1,0,0,1-1,1Z"
       id="path463" />
    <path
       class="cls-6"
       d="M492.13,104.6v5.47a19.26,19.26,0,0,1-.29,3.3,10.52,10.52,0,0,1,6.46-2.59,4.48,4.48,0,0,1,3.28,1.12,4.39,4.39,0,0,1,1.14,3.26V127H498V116.63a2.34,2.34,0,0,0-.34-1.46,1.5,1.5,0,0,0-1.2-.4,10,10,0,0,0-4.38,1.44V127h-4.74V104.6h4.77m0-2h-4.77a2,2,0,0,0-2,2V127a2,2,0,0,0,2,2h4.74a2,2,0,0,0,2-2v-9.54a8,8,0,0,1,1.92-.64V127a2,2,0,0,0,2,2h4.7a2,2,0,0,0,2-2V115.16a6.31,6.31,0,0,0-1.73-4.69,6.4,6.4,0,0,0-4.68-1.7,10.63,10.63,0,0,0-4.18.89V104.6a2,2,0,0,0-2-2Z"
       id="path465" />
    <path
       class="cls-5"
       d="M510.56,128.38a6.59,6.59,0,0,1-4.35-1.43,5.09,5.09,0,0,1-1.8-4.11v-1.6a4.58,4.58,0,0,1,1.64-3.72,6.41,6.41,0,0,1,4.19-1.28h4.61a1,1,0,0,0-.16-.55,2.81,2.81,0,0,0-1.41-.2c-1.73,0-3.94.08-6.59.25h-.06a1,1,0,0,1-1-.86l-.45-3.2a1,1,0,0,1,.81-1.12,47.57,47.57,0,0,1,8.4-.78c2.4,0,4.16.5,5.36,1.54s1.85,2.83,1.85,5.25V127a1,1,0,0,1-1,1h-3.74a1,1,0,0,1-1-.8l-.12-.6A8.15,8.15,0,0,1,510.56,128.38Zm1.07-7.3c-.52,0-.55.12-.55.5v.61c0,.37,0,.63.86.63a5.27,5.27,0,0,0,2.94-1v-.7Z"
       id="path467" />
    <path
       class="cls-6"
       d="M514.4,110.78a7.1,7.1,0,0,1,4.7,1.3q1.5,1.29,1.5,4.5V127h-3.74l-.48-2.4a7.36,7.36,0,0,1-5.82,2.78,5.6,5.6,0,0,1-3.71-1.2,4.11,4.11,0,0,1-1.44-3.34v-1.6a3.61,3.61,0,0,1,1.28-2.94,5.43,5.43,0,0,1,3.55-1.06h5.63v-.7a2.08,2.08,0,0,0-.56-1.63,3.49,3.49,0,0,0-2-.42q-2.62,0-6.66.26l-.45-3.2a46.32,46.32,0,0,1,8.22-.77m-2.46,13.06a6.53,6.53,0,0,0,3.94-1.54v-2.21h-4.26a1.36,1.36,0,0,0-1.54,1.5v.61q0,1.63,1.86,1.63m2.46-15.06a48.54,48.54,0,0,0-8.58.8,2,2,0,0,0-1.63,2.25l.45,3.2a2,2,0,0,0,1.07,1.5l-.3.23a5.6,5.6,0,0,0-2,4.49v1.6a6.12,6.12,0,0,0,2.16,4.88,7.56,7.56,0,0,0,5,1.66,9.17,9.17,0,0,0,4.68-1.22,2,2,0,0,0,1.63.84h3.74a2,2,0,0,0,2-2V116.57c0-2.73-.74-4.76-2.2-6s-3.36-1.78-6-1.78Z"
       id="path469" />
    <path
       class="cls-5"
       d="M531.58,128.38c-3.23,0-5.6-.75-7-2.22s-2.17-3.83-2.17-7c0-3.4.7-5.76,2.13-7.2s3.69-2.15,6.9-2.15c2.88,0,4.94.51,6.31,1.57a6,6,0,0,1,2.18,4.92,5.4,5.4,0,0,1-1.44,4,6.07,6.07,0,0,1-4.36,1.39h-4.43a1.18,1.18,0,0,0,.36.51,3.72,3.72,0,0,0,2.12.4,56.69,56.69,0,0,0,5.78-.35H538a1,1,0,0,1,1,.85l.45,2.94a1,1,0,0,1-.56,1.05A17,17,0,0,1,531.58,128.38Zm1.18-11.54a1.09,1.09,0,0,0,.4-.05,2.18,2.18,0,0,0,.07-.58c0-.46-.09-.69-.18-.75a2.85,2.85,0,0,0-1.51-.23c-1.25,0-1.65.28-1.76.4a2.35,2.35,0,0,0-.4,1.21Z"
       id="path471" />
    <path
       class="cls-6"
       d="M531.39,110.78q3.94,0,5.7,1.36a5,5,0,0,1,1.79,4.14,4.42,4.42,0,0,1-1.14,3.31,5.12,5.12,0,0,1-3.66,1.1h-5.7a3.27,3.27,0,0,0,1,2.32,4.71,4.71,0,0,0,2.7.59,57.19,57.19,0,0,0,5.89-.35l.45,2.94a16.22,16.22,0,0,1-6.88,1.18q-4.45,0-6.34-1.92t-1.89-6.34q0-4.64,1.84-6.5t6.19-1.86m-3.1,7.07h4.48a1.37,1.37,0,0,0,1.17-.42,2,2,0,0,0,.3-1.22,1.83,1.83,0,0,0-.58-1.55,3.71,3.71,0,0,0-2.11-.43,3.37,3.37,0,0,0-2.5.72,4.75,4.75,0,0,0-.77,2.9m3.1-9.07c-3.49,0-6,.8-7.61,2.45s-2.42,4.23-2.42,7.9c0,3.52.81,6.05,2.46,7.74s4.2,2.52,7.76,2.52a17.94,17.94,0,0,0,7.75-1.38,2,2,0,0,0,1.11-2.1L540,123a2,2,0,0,0-1.27-1.57,4.9,4.9,0,0,0,.41-.36,6.34,6.34,0,0,0,1.74-4.75,6.94,6.94,0,0,0-2.57-5.73c-1.55-1.2-3.81-1.78-6.92-1.78Z"
       id="path473" />
    <path
       class="cls-5"
       d="M549.09,128.42c-3.28,0-5.57-.71-7-2.17s-2.13-3.78-2.13-7.12.69-5.7,2.12-7.16,3.73-2.19,7-2.19,5.56.74,7,2.21,2.12,3.81,2.12,7.14-.7,5.66-2.13,7.12S552.34,128.42,549.09,128.42Zm0-13.09c-.62,0-1.41.09-1.7.51-.14.21-.47,1-.47,3.29s.33,3,.47,3.22c.28.43,1.08.51,1.7.51s1.36-.09,1.65-.52c.14-.21.48-.95.48-3.21s-.33-3.06-.48-3.28C550.46,115.42,549.69,115.33,549.09,115.33Z"
       id="path475" />
    <path
       class="cls-6"
       d="M549.09,110.78q4.42,0,6.26,1.9t1.84,6.45q0,4.54-1.84,6.42t-6.26,1.87q-4.45,0-6.29-1.87T541,119.13q0-4.58,1.84-6.46t6.29-1.89m0,13.09a2.8,2.8,0,0,0,2.48-1,7.37,7.37,0,0,0,.66-3.78,7.74,7.74,0,0,0-.64-3.82,2.78,2.78,0,0,0-2.5-1,2.84,2.84,0,0,0-2.53,1,7.71,7.71,0,0,0-.64,3.84,7.53,7.53,0,0,0,.64,3.78,2.84,2.84,0,0,0,2.53,1m0-15.09c-3.56,0-6.09.82-7.72,2.49S539,115.5,539,119.13s.79,6.17,2.41,7.82,4.16,2.47,7.71,2.47,6-.81,7.68-2.47,2.41-4.21,2.41-7.82-.79-6.17-2.4-7.84-4.15-2.51-7.69-2.51Zm-.88,7.67a2.4,2.4,0,0,1,.88-.12,2.2,2.2,0,0,1,.84.12,7.67,7.67,0,0,1,.29,2.68,7.18,7.18,0,0,1-.29,2.62,2.2,2.2,0,0,1-.84.12,2.39,2.39,0,0,1-.89-.12,7.64,7.64,0,0,1-.28-2.62,8,8,0,0,1,.28-2.68Z"
       id="path477" />
    <path
       class="cls-5"
       d="M564.67,128.38a5.66,5.66,0,0,1-4-1.41,5.15,5.15,0,0,1-1.53-3.95V104.6a1,1,0,0,1,1-1h4.7a1,1,0,0,1,1,1v17.25c0,.38,0,.6.79.6h1.28a1,1,0,0,1,1,.84l.54,3.3a1,1,0,0,1-.52,1A9.28,9.28,0,0,1,564.67,128.38Z"
       id="path479" />
    <path
       class="cls-6"
       d="M564.83,104.6v17.25q0,1.6,1.79,1.6h1.28l.54,3.3a8.47,8.47,0,0,1-3.78.64,4.68,4.68,0,0,1-3.33-1.14,4.18,4.18,0,0,1-1.22-3.22V104.6h4.7m0-2h-4.7a2,2,0,0,0-2,2V123a6.11,6.11,0,0,0,1.85,4.68,6.63,6.63,0,0,0,4.69,1.67,10.2,10.2,0,0,0,4.71-.87,2,2,0,0,0,1-2.1l-.54-3.3a2,2,0,0,0-2-1.67h-1.07V104.6a2,2,0,0,0-2-2Z"
       id="path481" />
    <path
       class="cls-5"
       d="M577.69,128.42c-3.28,0-5.57-.71-7-2.17s-2.13-3.78-2.13-7.12.69-5.7,2.12-7.16,3.73-2.19,7-2.19,5.56.74,7,2.21,2.12,3.81,2.12,7.14-.7,5.66-2.13,7.12S580.95,128.42,577.69,128.42Zm0-13.09c-.62,0-1.41.09-1.7.51-.14.21-.47,1-.47,3.29s.33,3,.47,3.22c.28.43,1.08.51,1.7.51s1.36-.09,1.65-.52c.14-.21.48-.95.48-3.21s-.33-3.06-.48-3.28C579.07,115.42,578.29,115.33,577.69,115.33Z"
       id="path483" />
    <path
       class="cls-6"
       d="M577.69,110.78q4.42,0,6.26,1.9t1.84,6.45q0,4.54-1.84,6.42t-6.26,1.87q-4.45,0-6.29-1.87t-1.84-6.42q0-4.58,1.84-6.46t6.29-1.89m0,13.09a2.8,2.8,0,0,0,2.48-1,7.37,7.37,0,0,0,.66-3.78,7.74,7.74,0,0,0-.64-3.82,2.78,2.78,0,0,0-2.5-1,2.84,2.84,0,0,0-2.53,1,7.71,7.71,0,0,0-.64,3.84,7.53,7.53,0,0,0,.64,3.78,2.84,2.84,0,0,0,2.53,1m0-15.09c-3.56,0-6.09.82-7.72,2.49s-2.41,4.23-2.41,7.86.79,6.17,2.41,7.82,4.16,2.47,7.71,2.47,6-.81,7.68-2.47,2.41-4.21,2.41-7.82-.79-6.17-2.4-7.84-4.15-2.51-7.69-2.51Zm-.88,7.67a2.4,2.4,0,0,1,.88-.12,2.2,2.2,0,0,1,.84.12,7.67,7.67,0,0,1,.29,2.68,7.18,7.18,0,0,1-.29,2.62,2.2,2.2,0,0,1-.84.12,2.39,2.39,0,0,1-.89-.12,7.64,7.64,0,0,1-.28-2.62,8,8,0,0,1,.28-2.68Z"
       id="path485" />
    <path
       class="cls-5"
       d="M595.84,134.11c-3.46,0-5.78-.37-7.1-1.15-1.48-.86-2.22-2.39-2.22-4.56a4.35,4.35,0,0,1,.75-2.58,4.64,4.64,0,0,1,1.27-1.17,4,4,0,0,1-.39-2.42,4.26,4.26,0,0,1,.77-2,5.52,5.52,0,0,1-1.72-4.39,5.4,5.4,0,0,1,2.09-4.76c1.29-.89,3.37-1.33,6.36-1.33a17.38,17.38,0,0,1,4.26.45h5a1,1,0,0,1,1,1.11l-.22,2.08a1,1,0,0,1-.87.88l-.84.11a8.58,8.58,0,0,1,.11,1.43,5.38,5.38,0,0,1-2.08,4.72c-1.2.84-3.11,1.28-5.81,1.33l3.51.41a6.53,6.53,0,0,1,4.11,1.71,5.56,5.56,0,0,1,1.35,4c0,2.38-.77,4-2.3,4.93C601.45,133.72,599.16,134.11,595.84,134.11ZM593.4,127a1.08,1.08,0,0,0-.37.78c0,.35.07.54.12.56a14.83,14.83,0,0,0,5.31,0s.16-.07.16-.48a1.2,1.2,0,0,0,0-.19,10.56,10.56,0,0,0-1.7-.29Zm2.22-12.2a4,4,0,0,0-1.88.26c-.12.08-.19.37-.19.76,0,.23,0,.64.22.77a3.66,3.66,0,0,0,1.85.27,3.56,3.56,0,0,0,1.82-.27c.19-.13.22-.54.22-.77,0-.47-.1-.71-.19-.76A3.87,3.87,0,0,0,595.61,114.82Z"
       id="path487" />
    <path
       class="cls-6"
       d="M595.65,110.78a16,16,0,0,1,4.13.45h5.09l-.22,2.08-2,.26a5.81,5.81,0,0,1,.38,2.27,4.43,4.43,0,0,1-1.65,3.9q-1.65,1.15-5.78,1.15a22.84,22.84,0,0,1-2.72-.16,1.14,1.14,0,0,0-.14,1.15,1.17,1.17,0,0,0,1.07.74l5.73.67a5.65,5.65,0,0,1,3.5,1.41,4.59,4.59,0,0,1,1.07,3.3q0,3-1.81,4.06t-6.48,1.06q-4.86,0-6.59-1t-1.73-3.7a3.35,3.35,0,0,1,.56-2A4.83,4.83,0,0,1,590,125a3.18,3.18,0,0,1,.51-4.86q-2.34-1.09-2.34-4.26a4.45,4.45,0,0,1,1.66-3.94q1.66-1.15,5.79-1.15m0,7.1a4.5,4.5,0,0,0,2.38-.45,1.8,1.8,0,0,0,.66-1.6,1.77,1.77,0,0,0-.64-1.6,4.79,4.79,0,0,0-2.4-.42,4.89,4.89,0,0,0-2.42.42,1.75,1.75,0,0,0-.66,1.6,1.8,1.8,0,0,0,.66,1.6,4.58,4.58,0,0,0,2.42.45m.16,11.71a9,9,0,0,0,3.09-.34,1.36,1.36,0,0,0,.75-1.39q0-.83-.48-1.06a8.56,8.56,0,0,0-2.11-.42l-4-.42a2.36,2.36,0,0,0-1,1.82q0,1.15.7,1.47a9,9,0,0,0,3,.32m-.13-20.82c-3.2,0-5.47.49-6.93,1.51-1.15.8-2.53,2.41-2.53,5.58a6.77,6.77,0,0,0,1.46,4.54,5.57,5.57,0,0,0-.5,1.7,5.15,5.15,0,0,0,.16,2.21,5.1,5.1,0,0,0-.86.93,5.31,5.31,0,0,0-.93,3.16c0,3.17,1.48,4.7,2.72,5.42,1.5.87,3.91,1.28,7.6,1.28s5.94-.42,7.49-1.33c1.28-.75,2.8-2.36,2.8-5.79a6.52,6.52,0,0,0-1.63-4.68,6.14,6.14,0,0,0-2.59-1.56,5.79,5.79,0,0,0,.62-.38c1.14-.8,2.5-2.41,2.5-5.54q0-.29,0-.57a2,2,0,0,0,1.6-1.75l.22-2.08a2,2,0,0,0-2-2.21H600a18.38,18.38,0,0,0-4.38-.45Zm-.82,7.07c.2,0,.46,0,.79,0s.58,0,.78,0c-.19,0-.45,0-.78,0s-.59,0-.79,0Z"
       id="path489" />
    <path
       class="cls-5"
       d="M609.53,134.5a10.72,10.72,0,0,1-1.27-.08,1,1,0,0,1-.87-.86l-.38-2.78a1,1,0,0,1,.73-1.1,7.91,7.91,0,0,0,2.67-1.16,4,4,0,0,0,.67-.63,2.47,2.47,0,0,1-1.69-1.75l-5.14-14.58a1,1,0,0,1,.94-1.33h5.06a1,1,0,0,1,1,.72l2.75,9.54,2.72-9.53a1,1,0,0,1,1-.73h5.06a1,1,0,0,1,.94,1.33l-5.6,16a13.81,13.81,0,0,1-1.19,2.55A11.81,11.81,0,0,1,615,132.4a7.25,7.25,0,0,1-2.95,1.73A8.41,8.41,0,0,1,609.53,134.5Z"
       id="path491" />
    <path
       class="cls-6"
       d="M622.68,111.22l-5.6,16a12.75,12.75,0,0,1-1.1,2.37,10.77,10.77,0,0,1-1.68,2.1,6.22,6.22,0,0,1-2.54,1.49,7.35,7.35,0,0,1-2.23.33,9.58,9.58,0,0,1-1.15-.07l-.38-2.78a8.81,8.81,0,0,0,3-1.33,5.4,5.4,0,0,0,1.7-2.19l.06-.13h-.9a1.47,1.47,0,0,1-1.54-1.15l-5.15-14.62h5.06l2.94,10.21q.29,1.12.48,2.37h.42q.1-.38.32-1.2l.32-1.17,2.91-10.21h5.06m0-2h-5.06a2,2,0,0,0-1.92,1.45l-1.76,6.18-1.78-6.19a2,2,0,0,0-1.92-1.45h-5.06a2,2,0,0,0-1.89,2.66l5.14,14.59a3.73,3.73,0,0,0,.91,1.53,8.45,8.45,0,0,1-1.87.7,2,2,0,0,0-1.47,2.21l.38,2.78a2,2,0,0,0,1.74,1.71,11.63,11.63,0,0,0,1.39.09,9.38,9.38,0,0,0,2.83-.42,8.23,8.23,0,0,0,3.34-2,12.82,12.82,0,0,0,2-2.49,14.82,14.82,0,0,0,1.28-2.74l5.6-16a2,2,0,0,0-1.89-2.66Zm0,4h0Z"
       id="path493" />
    <path
       class="cls-5"
       d="M639.36,128.29c-2.7,0-5.61-.1-8.64-.29a1,1,0,0,1-.94-1V104.92a1,1,0,0,1,.94-1c3-.19,5.94-.29,8.64-.29,3.81,0,6.54.94,8.11,2.79s2.3,4.95,2.3,9.54-.75,7.72-2.3,9.54S643.17,128.29,639.36,128.29Zm-1.92-5.86,1.92,0c1.89,0,2.36-.81,2.51-1.07.35-.61.78-2,.78-5.42s-.42-4.82-.78-5.44c-.15-.27-.62-1.08-2.5-1.08l-2.72,0v13Z"
       id="path495" />
    <path
       class="cls-6"
       d="M639.36,104.63q5.28,0,7.34,2.43t2.06,8.9q0,6.46-2.06,8.9t-7.34,2.43q-4,0-8.58-.29V104.92q4.54-.29,8.58-.29m0,18.82a3.57,3.57,0,0,0,3.38-1.57q.91-1.57.91-5.92t-.91-5.94a3.56,3.56,0,0,0-3.38-1.58l-3.71,0v14.94l1.78,0,1.94,0m0-20.82c-2.72,0-5.65.1-8.7.29a2,2,0,0,0-1.87,2V127a2,2,0,0,0,1.87,2c3.05.19,6,.29,8.7.29,4.12,0,7.1-1.06,8.87-3.14s2.54-5.35,2.54-10.19-.83-8.18-2.54-10.19-4.75-3.14-8.87-3.14Zm-1.71,7.82h1.73c1.29,0,1.53.42,1.63.58.19.34.64,1.49.64,4.94s-.45,4.58-.64,4.91c-.08.14-.33.57-1.65.57h-1.71v-11Z"
       id="path497" />
    <path
       class="cls-5"
       d="M656.28,128.38a6.59,6.59,0,0,1-4.35-1.43,5.09,5.09,0,0,1-1.8-4.11v-1.6a4.58,4.58,0,0,1,1.64-3.72,6.41,6.41,0,0,1,4.19-1.28h4.61a1,1,0,0,0-.16-.55,2.81,2.81,0,0,0-1.41-.2c-1.73,0-3.94.08-6.59.25h-.06a1,1,0,0,1-1-.86l-.45-3.2a1,1,0,0,1,.81-1.12,47.57,47.57,0,0,1,8.4-.78c2.4,0,4.16.5,5.36,1.54s1.85,2.83,1.85,5.25V127a1,1,0,0,1-1,1h-3.74a1,1,0,0,1-1-.8l-.12-.6A8.15,8.15,0,0,1,656.28,128.38Zm1.07-7.3c-.52,0-.55.12-.55.5v.61c0,.37,0,.63.86.63a5.27,5.27,0,0,0,2.94-1v-.7Z"
       id="path499" />
    <path
       class="cls-6"
       d="M660.12,110.78a7.1,7.1,0,0,1,4.7,1.3q1.5,1.29,1.5,4.5V127h-3.74l-.48-2.4a7.36,7.36,0,0,1-5.82,2.78,5.6,5.6,0,0,1-3.71-1.2,4.11,4.11,0,0,1-1.44-3.34v-1.6a3.61,3.61,0,0,1,1.28-2.94,5.43,5.43,0,0,1,3.55-1.06h5.63v-.7a2.08,2.08,0,0,0-.56-1.63,3.49,3.49,0,0,0-2-.42q-2.62,0-6.66.26l-.45-3.2a46.32,46.32,0,0,1,8.22-.77m-2.46,13.06a6.53,6.53,0,0,0,3.94-1.54v-2.21h-4.26a1.36,1.36,0,0,0-1.54,1.5v.61q0,1.63,1.86,1.63m2.46-15.06a48.54,48.54,0,0,0-8.58.8,2,2,0,0,0-1.63,2.25l.45,3.2a2,2,0,0,0,1.07,1.5l-.3.23a5.6,5.6,0,0,0-2,4.49v1.6a6.12,6.12,0,0,0,2.16,4.88,7.56,7.56,0,0,0,5,1.66,9.17,9.17,0,0,0,4.68-1.22,2,2,0,0,0,1.63.84h3.74a2,2,0,0,0,2-2V116.57c0-2.73-.74-4.76-2.2-6s-3.36-1.78-6-1.78Z"
       id="path501" />
    <path
       class="cls-5"
       d="M675.71,128.38a5.44,5.44,0,0,1-4-1.5,5.53,5.53,0,0,1-1.47-4v-7.45h-1.78a1,1,0,0,1-1-1v-3a1,1,0,0,1,.94-1l1.84-.11v-3.47a1,1,0,0,1,1-1h4.7a1,1,0,0,1,1,1v3.42h3.38a1,1,0,0,1,1,1v3.17a1,1,0,0,1-1,1H676.9v6.46a1.21,1.21,0,0,0,.08.53h0a2.12,2.12,0,0,0,.65.08h2a1,1,0,0,1,1,.85l.51,3.3a1,1,0,0,1-.66,1.1A14.56,14.56,0,0,1,675.71,128.38Z"
       id="path503" />
    <path
       class="cls-6"
       d="M675.9,106.81v4.42h4.38v3.17H675.9v7.46a1.64,1.64,0,0,0,.38,1.25,2,2,0,0,0,1.34.35h2l.51,3.3a13.52,13.52,0,0,1-4.45.64,4.46,4.46,0,0,1-3.33-1.2,4.55,4.55,0,0,1-1.18-3.34v-8.45h-2.78v-3l2.78-.16v-4.42h4.7m0-2h-4.7a2,2,0,0,0-2,2v2.53l-.9.05a2,2,0,0,0-1.89,2v3a2,2,0,0,0,2,2h.78v6.45a6.49,6.49,0,0,0,1.76,4.75,6.4,6.4,0,0,0,4.75,1.79,15.54,15.54,0,0,0,5.11-.75,2,2,0,0,0,1.31-2.19l-.51-3.3a2,2,0,0,0-2-1.69H677.9v-5.06h2.38a2,2,0,0,0,2-2v-3.17a2,2,0,0,0-2-2H677.9v-2.42a2,2,0,0,0-2-2Z"
       id="path505" />
    <path
       class="cls-5"
       d="M686.94,128.38a6.59,6.59,0,0,1-4.35-1.43,5.09,5.09,0,0,1-1.8-4.11v-1.6a4.58,4.58,0,0,1,1.64-3.72,6.41,6.41,0,0,1,4.19-1.28h4.61a1,1,0,0,0-.16-.55,2.81,2.81,0,0,0-1.41-.2c-1.73,0-3.94.08-6.59.25H683a1,1,0,0,1-1-.86l-.45-3.2a1,1,0,0,1,.81-1.12,47.57,47.57,0,0,1,8.4-.78c2.4,0,4.16.5,5.36,1.54s1.85,2.83,1.85,5.25V127a1,1,0,0,1-1,1h-3.74a1,1,0,0,1-1-.8l-.12-.6A8.15,8.15,0,0,1,686.94,128.38Zm1.07-7.3c-.52,0-.55.12-.55.5v.61c0,.37,0,.63.86.63a5.27,5.27,0,0,0,2.94-1v-.7Z"
       id="path507" />
    <path
       class="cls-6"
       d="M690.78,110.78a7.1,7.1,0,0,1,4.7,1.3q1.5,1.29,1.5,4.5V127h-3.74l-.48-2.4a7.36,7.36,0,0,1-5.82,2.78,5.6,5.6,0,0,1-3.71-1.2,4.11,4.11,0,0,1-1.44-3.34v-1.6a3.61,3.61,0,0,1,1.28-2.94,5.43,5.43,0,0,1,3.55-1.06h5.63v-.7a2.08,2.08,0,0,0-.56-1.63,3.49,3.49,0,0,0-2-.42q-2.62,0-6.66.26l-.45-3.2a46.32,46.32,0,0,1,8.22-.77m-2.46,13.06a6.53,6.53,0,0,0,3.94-1.54v-2.21H688a1.36,1.36,0,0,0-1.54,1.5v.61q0,1.63,1.86,1.63m2.46-15.06a48.53,48.53,0,0,0-8.58.8,2,2,0,0,0-1.63,2.25L681,115a2,2,0,0,0,1.07,1.5l-.3.23a5.6,5.6,0,0,0-2,4.49v1.6a6.12,6.12,0,0,0,2.16,4.88,7.56,7.56,0,0,0,5,1.66,9.17,9.17,0,0,0,4.68-1.22,2,2,0,0,0,1.63.84H697a2,2,0,0,0,2-2V116.57c0-2.73-.74-4.76-2.2-6s-3.36-1.78-6-1.78Z"
       id="path509" />
    <path
       class="cls-5"
       d="M708.38,128.38a33.84,33.84,0,0,1-4.44-.33,15.61,15.61,0,0,1-4-1,1,1,0,0,1-.61-.92V104.6a1,1,0,0,1,1-1h4.77a1,1,0,0,1,1,1v5q0,.7,0,1.34a8.07,8.07,0,0,1,4.22-1.18,6,6,0,0,1,5.25,2.32c1,1.46,1.55,3.71,1.55,6.87a11.1,11.1,0,0,1-1.87,6.85C713.92,127.52,711.62,128.38,708.38,128.38Zm-2.3-5.64a11.61,11.61,0,0,0,1.72.13h.44c1.11,0,1.39-.48,1.49-.63s.5-1.1.5-3.24a6.64,6.64,0,0,0-.4-3c-.22-.37-1-.42-1.41-.42a4.79,4.79,0,0,0-2.33.89Z"
       id="path511" />
    <path
       class="cls-6"
       d="M705.12,104.6v5a14.18,14.18,0,0,1-.42,3.71,7.66,7.66,0,0,1,5.6-2.56,5.07,5.07,0,0,1,4.43,1.9q1.36,1.9,1.36,6.29a10.11,10.11,0,0,1-1.66,6.24q-1.66,2.18-6,2.18a32.7,32.7,0,0,1-4.3-.32,14.81,14.81,0,0,1-3.73-.9V104.6h4.77m2.68,19.27h.48a2.64,2.64,0,0,0,2.29-1.09,7.6,7.6,0,0,0,.66-3.78,7.72,7.72,0,0,0-.54-3.54,2.44,2.44,0,0,0-2.27-.91,6.51,6.51,0,0,0-3.33,1.34v7.68a12.87,12.87,0,0,0,2.72.3m-2.68-21.27h-4.77a2,2,0,0,0-2,2v21.57a2,2,0,0,0,1.21,1.84,16.55,16.55,0,0,0,4.25,1,34.84,34.84,0,0,0,4.57.34c3.57,0,6.13-1,7.64-3a12.05,12.05,0,0,0,2.08-7.45c0-3.38-.57-5.82-1.73-7.45-.89-1.25-2.67-2.74-6.06-2.74a9,9,0,0,0-3.18.57V104.6a2,2,0,0,0-2-2Zm2,14.42a3.11,3.11,0,0,1,1.33-.47,2.52,2.52,0,0,1,.6.06,8.84,8.84,0,0,1,.22,2.39,6,6,0,0,1-.34,2.7,1.11,1.11,0,0,1-.68.17h-.41l-.72,0V117Z"
       id="path513" />
    <path
       class="cls-5"
       d="M723.39,128.38A6.59,6.59,0,0,1,719,127a5.09,5.09,0,0,1-1.8-4.11v-1.6a4.58,4.58,0,0,1,1.64-3.72,6.41,6.41,0,0,1,4.19-1.28h4.61a1,1,0,0,0-.16-.55,2.81,2.81,0,0,0-1.41-.2c-1.73,0-3.94.08-6.59.25h-.06a1,1,0,0,1-1-.86l-.45-3.2a1,1,0,0,1,.81-1.12,47.57,47.57,0,0,1,8.4-.78c2.4,0,4.16.5,5.36,1.54s1.85,2.83,1.85,5.25V127a1,1,0,0,1-1,1h-3.74a1,1,0,0,1-1-.8l-.12-.6A8.15,8.15,0,0,1,723.39,128.38Zm1.07-7.3c-.52,0-.55.12-.55.5v.61c0,.37,0,.63.86.63a5.27,5.27,0,0,0,2.94-1v-.7Z"
       id="path515" />
    <path
       class="cls-6"
       d="M727.23,110.78a7.1,7.1,0,0,1,4.7,1.3q1.5,1.29,1.5,4.5V127h-3.74l-.48-2.4a7.36,7.36,0,0,1-5.82,2.78,5.6,5.6,0,0,1-3.71-1.2,4.11,4.11,0,0,1-1.44-3.34v-1.6a3.61,3.61,0,0,1,1.28-2.94,5.43,5.43,0,0,1,3.55-1.06h5.63v-.7a2.08,2.08,0,0,0-.56-1.63,3.49,3.49,0,0,0-2-.42q-2.62,0-6.66.26l-.45-3.2a46.32,46.32,0,0,1,8.22-.77m-2.46,13.06a6.53,6.53,0,0,0,3.94-1.54v-2.21h-4.26a1.36,1.36,0,0,0-1.54,1.5v.61q0,1.63,1.86,1.63m2.46-15.06a48.53,48.53,0,0,0-8.58.8,2,2,0,0,0-1.63,2.25l.45,3.2a2,2,0,0,0,1.07,1.5l-.3.23a5.6,5.6,0,0,0-2,4.49v1.6a6.12,6.12,0,0,0,2.16,4.88,7.56,7.56,0,0,0,5,1.66,9.17,9.17,0,0,0,4.68-1.22,2,2,0,0,0,1.63.84h3.74a2,2,0,0,0,2-2V116.57c0-2.73-.74-4.76-2.2-6s-3.36-1.78-6-1.78Z"
       id="path517" />
    <path
       class="cls-5"
       d="M743.45,128.35a43.86,43.86,0,0,1-7.24-.56,1,1,0,0,1-.83-1.08l.29-3.07a1,1,0,0,1,1-.91h.06c.74,0,2.56.06,5.42.06a13.69,13.69,0,0,0,2.95-.17v0l-.17-.1-.12,0-.26-.08-.45-.11a5.15,5.15,0,0,1-.55-.16l-3.88-1a6.55,6.55,0,0,1-3.55-2.11,6,6,0,0,1-1-3.66,4.85,4.85,0,0,1,2-4.32c1.19-.8,3.08-1.19,5.76-1.19a47.37,47.37,0,0,1,7.47.62,1,1,0,0,1,.82,1.09l-.32,3a1,1,0,0,1-1,.9h0q-4-.06-6.06-.06h-1.51a3.84,3.84,0,0,0-.53.06v0l.24.11.22.08.4.11.41.1,4.09,1.1a7.2,7.2,0,0,1,3.49,1.92,5.35,5.35,0,0,1,1.15,3.66c0,2.24-.71,3.81-2.11,4.67S746.31,128.35,743.45,128.35Z"
       id="path519" />
    <path
       class="cls-6"
       d="M742.81,110.78a46.13,46.13,0,0,1,7.3.61l-.32,3q-4-.06-6.08-.06l-1.55,0a4.76,4.76,0,0,0-.86.11q-.43.1-.53.3a1.55,1.55,0,0,0-.1.62,2.13,2.13,0,0,0,0,.29.62.62,0,0,0,.08.24l.11.18a.65.65,0,0,0,.18.14l.21.11.29.11.32.11.42.11.46.11,4,1.09a6.3,6.3,0,0,1,3,1.62,4.38,4.38,0,0,1,.9,3q0,2.82-1.63,3.82t-5.6,1a42.66,42.66,0,0,1-7.07-.54l.29-3.07q1.15.06,5.47.06a15.18,15.18,0,0,0,3.22-.21.93.93,0,0,0,.75-1,2.32,2.32,0,0,0,0-.29.64.64,0,0,0-.08-.24.85.85,0,0,0-.13-.18,1,1,0,0,0-.21-.14l-.22-.13-.3-.13-.35-.11-.45-.11a3.79,3.79,0,0,1-.48-.14l-3.94-1.06a5.66,5.66,0,0,1-3-1.74,5,5,0,0,1-.83-3.06,3.9,3.9,0,0,1,1.52-3.49q1.52-1,5.2-1m0-2c-2.89,0-5,.45-6.32,1.37a5.78,5.78,0,0,0-2.4,5.15,6.17,6.17,0,0,0,4.59,6.5c-.91,0-1.54,0-1.9,0h-.11a2,2,0,0,0-2,1.81l-.29,3.07a2,2,0,0,0,1.66,2.16,44.86,44.86,0,0,0,7.4.57c3.05,0,5.23-.43,6.65-1.31,1.18-.73,2.58-2.28,2.58-5.53a6.3,6.3,0,0,0-1.4-4.32,7,7,0,0,0-2.73-1.79l1.2,0h0a2,2,0,0,0,2-1.79l.32-3a2,2,0,0,0-1.64-2.18,48.33,48.33,0,0,0-7.62-.64Z"
       id="path521" />
    <path
       class="cls-5"
       d="M761,128.38c-3.23,0-5.6-.75-7-2.22s-2.17-3.83-2.17-7c0-3.4.7-5.76,2.13-7.2s3.69-2.15,6.9-2.15c2.88,0,4.94.51,6.31,1.57a6,6,0,0,1,2.18,4.92,5.4,5.4,0,0,1-1.44,4,6.07,6.07,0,0,1-4.36,1.39H759a1.18,1.18,0,0,0,.36.51,3.72,3.72,0,0,0,2.12.4,56.69,56.69,0,0,0,5.78-.35h.11a1,1,0,0,1,1,.85l.45,2.94a1,1,0,0,1-.56,1.05A17,17,0,0,1,761,128.38Zm1.18-11.54a1.09,1.09,0,0,0,.4-.05,2.18,2.18,0,0,0,.07-.58c0-.46-.09-.69-.18-.75a2.85,2.85,0,0,0-1.51-.23c-1.25,0-1.65.28-1.76.4a2.35,2.35,0,0,0-.4,1.21Z"
       id="path523" />
    <path
       class="cls-6"
       d="M760.76,110.78q3.94,0,5.7,1.36a5,5,0,0,1,1.79,4.14,4.42,4.42,0,0,1-1.14,3.31,5.12,5.12,0,0,1-3.66,1.1h-5.7a3.27,3.27,0,0,0,1,2.32,4.71,4.71,0,0,0,2.7.59,57.19,57.19,0,0,0,5.89-.35l.45,2.94a16.22,16.22,0,0,1-6.88,1.18q-4.45,0-6.34-1.92t-1.89-6.34q0-4.64,1.84-6.5t6.19-1.86m-3.1,7.07h4.48a1.37,1.37,0,0,0,1.17-.42,2,2,0,0,0,.3-1.22,1.83,1.83,0,0,0-.58-1.55,3.71,3.71,0,0,0-2.11-.43,3.37,3.37,0,0,0-2.5.72,4.75,4.75,0,0,0-.77,2.9m3.1-9.07c-3.49,0-6,.8-7.61,2.45s-2.42,4.23-2.42,7.9c0,3.52.81,6.05,2.46,7.74s4.2,2.52,7.76,2.52A17.94,17.94,0,0,0,768.7,128a2,2,0,0,0,1.11-2.1l-.45-2.94a2,2,0,0,0-1.27-1.57,4.9,4.9,0,0,0,.41-.36,6.34,6.34,0,0,0,1.74-4.75,6.94,6.94,0,0,0-2.57-5.73c-1.55-1.2-3.81-1.78-6.92-1.78Z"
       id="path525" />
  </g>
  <metadata
     id="metadata4613">
    <rdf:RDF>
      <cc:Work
         rdf:about="">
        <dc:title>SEAD-logo-large</dc:title>
      </cc:Work>
    </rdf:RDF>
  </metadata>
</svg>
